<?xml version="1.0" encoding="UTF-8"?>
<svg xmlns="http://www.w3.org/2000/svg" xmlns:xlink="http://www.w3.org/1999/xlink" viewBox="0 0 1296 488.3">
  <defs>
    <style>
      .cls-1 {
        clip-path: url(#clippath-4);
      }

      .cls-2, .cls-3 {
        stroke-miterlimit: 10;
      }

      .cls-2, .cls-3, .cls-4, .cls-5, .cls-6 {
        fill: none;
      }

      .cls-2, .cls-3, .cls-5, .cls-6 {
        stroke: #000;
      }

      .cls-2, .cls-5, .cls-6 {
        stroke-linecap: round;
      }

      .cls-2, .cls-6 {
        stroke-width: .5px;
      }

      .cls-3 {
        stroke-width: .75px;
      }

      .cls-7 {
        fill: #fff;
      }

      .cls-8 {
        clip-path: url(#clippath-1);
      }

      .cls-5 {
        stroke-width: .25px;
      }

      .cls-5, .cls-6 {
        stroke-linejoin: round;
      }

      .cls-9 {
        clip-path: url(#clippath-3);
      }

      .cls-10 {
        clip-path: url(#clippath-2);
      }

      .cls-11 {
        opacity: .48;
      }

      .cls-12 {
        clip-path: url(#clippath);
      }

      .cls-13 {
        fill: #e6e6e6;
      }
    </style>
    <clipPath id="clippath">
      <polygon class="cls-4" points="744.71 188.82 788.21 212.54 742.26 246.42 693.75 218.34 744.71 188.82"/>
    </clipPath>
    <clipPath id="clippath-1">
      <path class="cls-4" d="M1049.85,296.64c.29-.22,9.03-5.34,9.03-5.34l39.22,11.17,8.85,24.62-46.59-5.27-10.5-25.17Z"/>
    </clipPath>
    <clipPath id="clippath-2">
      <path class="cls-4" d="M1152.61,165.43c.29-.22,10.21-5.9,10.21-5.9l19.89,15.68-4.11,2.39-.06,1.66-26.79-5.35.85-8.48Z"/>
    </clipPath>
    <clipPath id="clippath-3">
      <path class="cls-4" d="M1092.72,125.87c.08-.06,3.9-2.25,3.9-2.25l1.68.24-19.67-24.33-23.18,1.87-3.93,9.61,41.2,14.86Z"/>
    </clipPath>
    <clipPath id="clippath-4">
      <path class="cls-4" d="M1021.36,162c.85.26,19.42,5.75,19.42,5.75l-1.92,5.65-3.12,3.15-19.85-5.36,1.3-6.58,4.16-2.61Z"/>
    </clipPath>
  </defs>
  <g id="Layer_7" data-name="Layer 7">
    <path class="cls-3" d="M1377.96,93.29c-128.6,64.98-145.73,85.97-145.73,85.97"/>
    <path class="cls-3" d="M1193.26,202.95c-67.52,47.77-238.38,135.36-342.62,185.33-104.24,49.97-426.12,128.26-643.34,225.12s-406.96,217.61-406.96,217.61"/>
  </g>
  <g id="Livepain">
    <g>
      <polygon class="cls-7" points="1232.24 203.5 1255.44 227.62 1219.74 248.23 1196.53 224.12 1232.24 203.5"/>
      <polygon class="cls-7" points="1255.44 227.62 1254.77 229.15 1250.08 231.85 1232.24 242.15 1219.07 249.75 1219.74 248.23 1255.44 227.62"/>
      <path class="cls-7" d="M1232.24,384.87l23.2,24.11-41.06,23.7v-37.5l17.85-10.31Z"/>
      <path class="cls-7" d="M1255.44,408.99l-.67,1.54-4.69,2.7-17.84,10.3-17.85,10.31v-1.15l41.06-23.7Z"/>
      <polygon class="cls-7" points="1250.08 413.23 1250.08 420.94 1232.24 431.25 1232.24 423.53 1250.08 413.23"/>
      <polygon class="cls-7" points="1250.08 231.85 1250.08 239.57 1232.24 249.88 1232.24 242.15 1250.08 231.85"/>
      <polygon class="cls-7" points="1242.94 164.76 1241.61 166.67 1232.24 172.08 1232.24 172.09 1214.38 182.39 1201.23 189.99 1201.89 188.45 1242.94 164.76"/>
      <path class="cls-7" d="M1242.94,164.76l-41.06,23.7-23.2-24.11,17.84-10.3c15.48,3.57,30.94,7.14,46.41,10.72Z"/>
      <path class="cls-7" d="M1242.94,164.76c-15.48-3.58-30.94-7.15-46.41-10.72l23.21-2.68,23.2,13.4Z"/>
      <polygon class="cls-7" points="1232.24 423.53 1232.24 431.25 1214.38 441.55 1214.38 433.84 1232.24 423.53"/>
      <polygon class="cls-7" points="1232.24 242.15 1232.24 249.88 1214.38 260.18 1214.38 244.88 1219.07 249.75 1232.24 242.15"/>
      <polygon class="cls-7" points="1232.24 172.09 1232.24 183.93 1214.38 194.23 1214.38 182.39 1232.24 172.09"/>
      <polygon class="cls-7" points="1232.24 384.87 1214.38 395.19 1160.83 364.27 1178.68 353.96 1232.24 384.87"/>
      <polygon class="cls-7" points="1196.53 224.12 1219.74 248.23 1219.07 249.75 1214.38 244.88 1211.81 242.21 1200.89 230.87 1195.87 225.64 1196.53 224.12"/>
      <polygon class="cls-7" points="1214.38 433.84 1214.38 441.55 1196.53 431.25 1196.53 423.53 1214.38 433.84"/>
      <path class="cls-7" d="M1214.38,432.69v1.15l-17.85-10.31-17.84-10.3-17.85-10.3-17.84-10.31-4.69-2.7-.67-1.54,76.75,44.31Z"/>
      <path class="cls-7" d="M1214.38,395.19v37.5l-76.75-44.31,23.2-24.1,53.55,30.92Z"/>
      <polygon class="cls-7" points="1214.38 244.88 1214.38 260.18 1196.53 249.88 1196.53 233.39 1211.81 242.21 1214.38 244.88"/>
      <polygon class="cls-7" points="1214.38 182.39 1214.38 194.23 1196.53 204.53 1196.53 188.05 1198.35 187 1201.23 189.99 1214.38 182.39"/>
      <polygon class="cls-7" points="1200.89 230.87 1211.81 242.21 1196.53 233.39 1200.89 230.87"/>
      <polygon class="cls-7" points="1178.68 164.34 1201.89 188.45 1201.23 189.99 1198.35 187 1185.6 173.75 1178.68 166.56 1178.68 164.34"/>
      <polygon class="cls-7" points="1198.35 187 1196.53 188.05 1178.68 177.74 1185.6 173.75 1198.35 187"/>
      <polygon class="cls-7" points="1196.53 423.53 1196.53 431.25 1178.68 420.94 1178.68 413.23 1196.53 423.53"/>
      <polygon class="cls-7" points="1196.53 188.05 1196.53 204.53 1178.68 194.23 1178.68 177.74 1196.53 188.05"/>
      <path class="cls-7" d="M1184.03,130.74c-.22.77-.44,1.54-.66,2.3-.62.07-1.25.14-1.87.22.24-.36.5-.72.74-1.07l-1.78-1.03,3.57-.42Z"/>
      <path class="cls-7" d="M1184.03,130.74l-3.57.42-35.7-20.61,3.57-.42c11.91,6.87,23.8,13.74,35.7,20.61Z"/>
      <path class="cls-7" d="M1182.24,132.19c-.24.36-.5.72-.74,1.07-.2.28-.39.55-.59.84l-2.23,1.28-25.66,14.82.67-1.54,28.55-16.48Z"/>
      <path class="cls-7" d="M1182.24,132.19l-28.55,16.48c-4.76-4.94-9.52-9.89-14.29-14.83-2.38-2.48-4.76-4.95-7.14-7.43s-4.76-4.94-7.14-7.41c19.04,4.4,38.08,8.79,57.11,13.19Z"/>
      <path class="cls-7" d="M1182.24,132.19c-19.03-4.4-38.06-8.79-57.11-13.19v-19.78l19.63,11.33,35.7,20.61,1.78,1.03Z"/>
      <polygon class="cls-7" points="1178.68 413.23 1178.68 420.94 1160.83 410.64 1160.83 402.92 1178.68 413.23"/>
      <path class="cls-7" d="M1178.68,135.39v13.5c-11.91,6.87-23.8,13.73-35.7,20.6v-5.24l10.04-5.8.67-1.54c-2.08-2.16-4.16-4.32-6.25-6.48l3.73-2.16c.61.65,1.22,1.28,1.85,1.93l25.66-14.82Z"/>
      <polygon class="cls-7" points="1171.54 333.76 1170.22 335.68 1160.83 341.09 1147.68 348.69 1148.33 347.16 1171.54 333.76"/>
      <path class="cls-7" d="M1171.54,333.76l-23.2,13.4-23.2-24.11c15.48,3.58,30.94,7.15,46.4,10.72Z"/>
      <path class="cls-7" d="M1171.54,333.76c-15.46-3.57-30.93-7.14-46.4-10.72l-17.84-10.3,23.2-2.68,41.04,23.7Z"/>
      <polygon class="cls-7" points="1160.83 402.92 1160.83 410.64 1142.99 400.34 1142.99 392.61 1160.83 402.92"/>
      <polygon class="cls-7" points="1160.83 341.09 1160.83 348.81 1142.99 359.11 1142.99 343.82 1147.68 348.69 1160.83 341.09"/>
      <path class="cls-7" d="M1139.41,133.84c4.77,4.94,9.53,9.89,14.29,14.83l-.67,1.54c-.62-.65-1.24-1.28-1.85-1.93-4.15-4.3-8.29-8.6-12.43-12.91l-7.14-7.41c-1.97-2.06-3.96-4.11-5.94-6.17-.18-.18-.36-.38-.54-.57v-2.22c2.38,2.47,4.76,4.94,7.14,7.41s4.76,4.94,7.14,7.43Z"/>
      <path class="cls-7" d="M1147.44,150.44c2.09,2.16,4.17,4.32,6.25,6.48l-35.7,20.61c-.62-.64-1.22-1.26-1.84-1.91l1.17-.68.67-1.54c-4.76-4.94-9.53-9.89-14.29-14.84l-7.14-7.41c-1.54-1.59-3.06-3.18-4.58-4.77l33.14-19.14c2.38,2.47,4.76,4.94,7.14,7.41s4.76,4.94,7.14,7.43c2.69,2.78,5.37,5.57,8.04,8.35Z"/>
      <polygon class="cls-7" points="1153.69 156.91 1153.02 158.45 1142.99 164.25 1117.43 179.01 1117.37 178.95 1118 177.53 1153.69 156.91"/>
      <path class="cls-7" d="M1151.18,148.28l-3.73,2.16c-2.67-2.78-5.35-5.57-8.04-8.35-2.38-2.48-4.76-4.95-7.14-7.43s-4.76-4.94-7.14-7.41c-2.38-.28-4.76-.55-7.14-.83-.1-.01-.2-.02-.3-.03,2.66-1.52,5.32-3.06,7.98-4.6,1.97,2.06,3.96,4.11,5.94,6.17l7.14,7.41c4.13,4.31,8.28,8.62,12.43,12.91Z"/>
      <polygon class="cls-7" points="1125.13 323.04 1148.33 347.16 1147.68 348.69 1142.99 343.82 1140.41 341.14 1129.5 329.8 1125.13 325.26 1125.13 323.04"/>
      <polygon class="cls-7" points="1142.99 343.82 1142.99 359.11 1125.13 348.81 1125.13 332.32 1140.41 341.14 1142.99 343.82"/>
      <path class="cls-7" d="M1142.99,169.49v8.25c-5.74,3.31-11.47,6.63-17.21,9.94l-8.35-8.67,25.56-14.76v5.24Z"/>
      <polygon class="cls-7" points="1140.41 341.14 1125.13 332.32 1129.5 329.8 1140.41 341.14"/>
      <path class="cls-7" d="M1138.9,230.13v.9c-27.61,12.02-55.23,24.03-82.84,36.06l-.9-.52,83.74-36.44Z"/>
      <path class="cls-7" d="M1138.9,230.13l-83.74,36.44-108.52-62.65-36.04,20.81-19.15-14.67c32.66-14.22,65.33-28.43,98-42.65l10.74,6.2,17.85-10.3,17.84-10.3v-1.8c.91.69,1.81,1.39,2.73,2.09l-6.28,3.63c.44.64.89,1.27,1.33,1.91l12.5,7.22-15.61,16.23.66,1.52,4.69,2.71v7.71l35.7,20.61,17.85,10.3,17.85-10.3,6.64-3.83c8.33,6.37,16.64,12.75,24.97,19.12Z"/>
      <path class="cls-7" d="M1125.77,187.68c1.58,1.63,3.15,3.27,4.72,4.9l-41.06,23.7v-25.23l25.44-14.69,2.49,2.6.06.06,8.35,8.67h-.01Z"/>
      <path class="cls-7" d="M1130.49,192.58c-.22.51-.45,1.02-.67,1.54l-4.69,2.7-17.84,10.3-17.85,10.31v-1.15l41.06-23.7Z"/>
      <polygon class="cls-7" points="1125.13 325.26 1129.5 329.8 1125.13 332.32 1107.29 322.01 1113.4 318.48 1125.13 325.26"/>
      <polygon class="cls-7" points="1125.13 332.32 1125.13 348.81 1107.29 338.51 1107.29 322.01 1125.13 332.32"/>
      <polygon class="cls-7" points="1125.13 323.04 1125.13 325.26 1113.4 318.48 1107.29 314.96 1107.29 312.74 1125.13 323.04"/>
      <path class="cls-7" d="M1125.13,196.81v7.71c-3.73,2.16-7.47,4.32-11.2,6.48l-6.64,3.83v-7.73l17.84-10.3Z"/>
      <path class="cls-7" d="M1125.13,119v2.22c-2.16-.24-4.32-.5-6.48-.75-2.38-.27-4.76-.54-7.14-.82-4.76-.55-9.52-1.1-14.27-1.65-.22-.76-.44-1.52-.66-2.3,4.76.55,9.52,1.11,14.27,1.65,2.38.28,4.76.55,7.14.83,2.38.27,4.76.54,7.14.82Z"/>
      <path class="cls-7" d="M1125.13,99.22v19.78c-2.38-.28-4.76-.55-7.14-.82-2.38-.28-4.76-.55-7.14-.83-4.76-.54-9.52-1.1-14.27-1.65,9.52-5.49,19.03-10.98,28.55-16.48Z"/>
      <path class="cls-7" d="M1125.13,127.25l-33.14,19.14c-.85-.88-1.71-1.77-2.55-2.64l-7.14-.83c-2.38-.28-4.76-.54-7.14-.82-2.77-.32-5.54-.65-8.32-.96l20.8-12.02h.01c2.98-1.72,5.95-3.44,8.93-5.16,4.76.55,9.52,1.11,14.27,1.65,2.28.27,4.56.53,6.84.79.1.01.2.02.3.03,2.38.28,4.76.55,7.14.83Z"/>
      <path class="cls-7" d="M1103.71,158.57c4.76,4.95,9.53,9.9,14.29,14.84l-28.56,16.49v-46.16c.84.88,1.7,1.77,2.55,2.64,1.52,1.59,3.05,3.18,4.58,4.77l7.14,7.41Z"/>
      <path class="cls-7" d="M1116.16,175.62l-1.28.73-25.44,14.69v-1.14l28.56-16.49-.67,1.54-1.17.68Z"/>
      <path class="cls-7" d="M1116.16,175.62c.61.65,1.21,1.27,1.84,1.91l-.62,1.42-2.49-2.6,1.28-.73Z"/>
      <polygon class="cls-7" points="1107.29 207.12 1107.29 214.84 1089.44 225.14 1089.44 217.43 1107.29 207.12"/>
      <polygon class="cls-7" points="1089.44 217.43 1089.44 225.14 1071.58 214.84 1071.58 207.12 1089.44 217.43"/>
      <path class="cls-7" d="M1089.44,216.27v1.15l-17.85-10.31-35.7-20.6-4.69-2.71-.66-1.52,58.9,34Z"/>
      <path class="cls-7" d="M1089.44,191.04v25.23l-58.9-34,15.61-16.23,43.28,24.99Z"/>
      <path class="cls-7" d="M1089.44,189.9v1.14l-43.28-24.99-12.5-7.22c-.44-.64-.89-1.27-1.33-1.91l57.11,32.97Z"/>
      <path class="cls-7" d="M1089.44,143.74v46.16l-57.11-32.97c19.03-4.4,38.08-8.8,57.11-13.19Z"/>
      <path class="cls-7" d="M1089.44,143.74c-19.03,4.39-38.08,8.79-57.11,13.19l6.28-3.63,22.28-12.87c.8.09,1.58.18,2.38.28l3.57.42h.01c2.77.31,5.54.64,8.32.96,2.38.28,4.76.54,7.14.82l7.14.83Z"/>
      <path class="cls-7" d="M1087.65,129.1l-20.8,12.02h-.01l-3.57-.42,20.82-12.02c1.19.14,2.37.28,3.56.42Z"/>
      <path class="cls-7" d="M1084.09,128.69l-20.82,12.02c6.93-4.01,13.88-8.01,20.82-12.02Z"/>
      <polygon class="cls-7" points="1076.94 68.91 1076.28 71.21 1067.35 72.24 1053.74 73.81 1053.74 71.59 1076.94 68.91"/>
      <path class="cls-7" d="M1076.94,68.91l-23.2,2.68v-16.08l23.2,13.4Z"/>
      <path class="cls-7" d="M1075.15,280.59c-.45.64-.89,1.27-1.33,1.91-12.65,7.3-25.29,14.61-37.94,21.91v-1.15l39.27-22.66Z"/>
      <path class="cls-7" d="M1075.15,280.59l-39.27,22.66v-31.72c13.08,3.01,26.18,6.04,39.27,9.07Z"/>
      <path class="cls-7" d="M1075.15,280.59c-13.08-3.03-26.18-6.05-39.27-9.07l-89.25-51.53v-13.6l108.88,62.86,2.96,1.71,16.68,9.63Z"/>
      <polygon class="cls-7" points="1071.58 207.12 1071.58 214.84 1035.88 194.23 1035.88 186.51 1071.58 207.12"/>
      <polygon class="cls-7" points="1071.58 74.69 1071.58 91.18 1053.74 101.48 1053.74 84.99 1071.58 74.69"/>
      <polygon class="cls-7" points="1071.58 74.69 1053.74 84.99 1044.06 79.4 1053.74 73.81 1067.35 72.24 1071.58 74.69"/>
      <path class="cls-7" d="M1059.09,268.83c-.2.72-.4,1.42-.61,2.12l-2.96-1.71,3.57-.42Z"/>
      <path class="cls-7" d="M1056.06,267.09l3.03,1.74-3.57.42-108.88-62.86v-2.47l108.52,62.65.9.52Z"/>
      <polygon class="cls-7" points="1053.74 84.99 1053.74 101.48 1035.88 111.78 1035.88 95.3 1053.74 84.99"/>
      <polygon class="cls-7" points="1053.74 71.59 1053.74 73.81 1044.06 79.4 1035.88 84.12 1035.88 81.89 1053.74 71.59"/>
      <path class="cls-7" d="M1053.74,55.52v16.08l-17.85,10.3-23.2-2.67,41.06-23.71Z"/>
      <polygon class="cls-7" points="1053.74 84.99 1035.88 95.3 1018.04 84.99 1022.27 82.55 1013.35 81.51 1035.88 84.12 1044.06 79.4 1053.74 84.99"/>
      <path class="cls-7" d="M1035.88,303.25v1.15l-28.19-16.28h-.01l-.88-.51-12.78-7.38-11.68-6.74-2.6-1.5-3.63-2.09-1.37-.8-61.14-35.29-4.9-2.83c-.44-.65-.89-1.28-1.33-1.92l128.5,74.19Z"/>
      <path class="cls-7" d="M1035.88,271.52v31.72l-128.5-74.19,39.25-9.07,89.25,51.53Z"/>
      <path class="cls-7" d="M1035.88,151.21v1.8l-17.84,10.3v-16.49l17.84-10.3v14.69Z"/>
      <path class="cls-7" d="M1035.88,127.25v2.22l-6.11,3.52-11.73,6.78v-2.22l17.84-10.3Z"/>
      <polygon class="cls-7" points="1035.88 95.3 1035.88 111.78 1018.04 101.48 1018.04 84.99 1035.88 95.3"/>
      <polygon class="cls-7" points="1035.88 81.89 1035.88 84.12 1013.35 81.51 1012.68 79.23 1035.88 81.89"/>
      <path class="cls-7" d="M1035.88,127.25l-17.84,10.3c-15.48,3.58-30.94,7.15-46.4,10.72,13.69-7.9,27.36-15.8,41.04-23.7,7.74.89,15.48,1.78,23.2,2.68Z"/>
      <path class="cls-7" d="M1035.88,136.52l-17.84,10.3-4.37-2.52,4.37-4.54,11.73-6.78c2.04,1.18,4.08,2.36,6.11,3.53Z"/>
      <polygon class="cls-7" points="1018.04 146.82 1018.04 163.31 1000.19 173.61 1000.19 158.32 1002.76 155.64 1018.04 146.82"/>
      <polygon class="cls-7" points="1018.04 137.55 1018.04 139.76 1013.68 144.3 1002.76 155.64 1000.19 158.32 995.5 163.2 994.84 161.66 1018.04 137.55"/>
      <path class="cls-7" d="M1018.04,137.55l-23.2,24.11-23.2-13.4c15.46-3.57,30.93-7.14,46.4-10.72Z"/>
      <polygon class="cls-7" points="1018.04 146.82 1002.76 155.64 1013.68 144.3 1018.04 146.82"/>
      <path class="cls-7" d="M1007.68,288.12c-3.3,1.44-6.59,2.88-9.9,4.32v-.9l9.02-3.93.88.51Z"/>
      <polygon class="cls-7" points="1006.8 287.61 997.79 291.54 987.75 283.85 994.02 280.23 1006.8 287.61"/>
      <path class="cls-7" d="M1000.19,158.32v15.29l-10.74-6.2c-2.37-1.36-4.73-2.73-7.1-4.1v-7.71l13.15,7.6,4.69-4.87Z"/>
      <path class="cls-7" d="M997.79,291.54v.9c-3.57-2.74-7.14-5.46-10.71-8.2l.67-.39,10.04,7.69Z"/>
      <path class="cls-7" d="M994.84,161.66l.66,1.54-13.15-7.6-9.38-5.42c-.45-.64-.89-1.28-1.33-1.92l23.2,13.4Z"/>
      <path class="cls-7" d="M994.02,280.23l-6.27,3.61-.67.39c-1.58.91-3.15,1.82-4.73,2.74v-13.49l11.68,6.74Z"/>
      <path class="cls-7" d="M982.34,273.49v13.49c-5.96,3.43-11.91,6.87-17.85,10.3v-15.29l2.58-2.68,12.68-7.32,2.6,1.5Z"/>
      <polygon class="cls-7" points="979.75 271.99 967.07 279.31 976.12 269.89 979.75 271.99"/>
      <polygon class="cls-7" points="976.12 269.89 967.07 279.31 964.49 281.99 959.8 286.86 959.14 285.32 974.75 269.1 976.12 269.89"/>
      <path class="cls-7" d="M974.75,269.1l-15.6,16.23-76.75-44.31,31.22-7.21,61.14,35.29Z"/>
      <path class="cls-7" d="M964.49,281.99v15.29c-5.95-3.43-11.9-6.87-17.85-10.3v-7.71l13.17,7.6,4.69-4.87Z"/>
      <path class="cls-7" d="M959.14,285.32l.66,1.54-13.17-7.6-17.84-10.3h0s-17.85-10.31-17.85-10.31l-17.84-10.3-9.38-5.42c-.45-.64-.89-1.28-1.33-1.92l76.75,44.31Z"/>
      <path class="cls-7" d="M946.64,279.26v7.71c-5.95-3.43-11.9-6.87-17.84-10.3v-7.71l17.84,10.3Z"/>
      <path class="cls-7" d="M946.64,206.39v13.6l-39.25,9.07,39.25-22.67Z"/>
      <path class="cls-7" d="M946.64,203.92v2.47l-39.25,22.67c.44.64.89,1.27,1.33,1.92l4.9,2.83-31.22,7.21,27.53-15.89.67-.39,36.04-20.81Z"/>
      <path class="cls-7" d="M928.79,268.96v7.71c-5.95-3.44-11.91-6.87-17.85-10.31v-7.71l17.85,10.3h0Z"/>
      <path class="cls-7" d="M926.29,146.81l-1.33,1.92-9.38,5.42-17.85,10.3-17.84,10.31-17.85,10.3-17.84,10.3-17.85,10.31-17.85,10.3v-1.14l117.81-68.02Z"/>
      <path class="cls-7" d="M926.29,146.81l-117.81,68.02v-25.25l86.58-49.98c10.41,2.4,20.82,4.8,31.23,7.21Z"/>
      <path class="cls-7" d="M926.29,146.81c-10.41-2.4-20.82-4.8-31.23-7.21l4.91-2.83c.44-.64.88-1.27,1.33-1.92l-57.11-32.97v-2.47l82.1,47.4Z"/>
      <polygon class="cls-7" points="915.58 154.14 915.58 161.86 897.73 172.17 897.73 164.44 915.58 154.14"/>
      <path class="cls-7" d="M910.94,258.65v7.71c-5.95-3.43-11.9-6.87-17.84-10.3v-7.71l17.84,10.3Z"/>
      <path class="cls-7" d="M910.59,224.73l-.67.39c-6.17-4.72-12.32-9.45-18.48-14.16v-.9l19.15,14.67Z"/>
      <path class="cls-7" d="M901.3,134.86c-.45.65-.89,1.28-1.33,1.92l-4.91,2.83-86.58,49.98v-1.14l92.82-53.59Z"/>
      <polygon class="cls-7" points="901.3 134.86 808.48 188.44 808.48 142.28 844.19 121.67 901.3 134.86"/>
      <polygon class="cls-7" points="901.3 134.86 844.19 121.67 844.19 101.88 901.3 134.86"/>
      <polygon class="cls-7" points="897.73 164.44 897.73 172.17 879.88 182.47 879.88 174.76 897.73 164.44"/>
      <polygon class="cls-7" points="879.88 174.76 879.88 182.47 862.03 192.77 862.03 185.06 879.88 174.76"/>
      <polygon class="cls-7" points="862.03 185.06 862.03 192.77 844.19 203.09 844.19 195.36 862.03 185.06"/>
      <polygon class="cls-7" points="857.94 228.69 857.94 229.59 775.09 265.63 774.2 265.11 857.94 228.69"/>
      <path class="cls-7" d="M857.94,228.69l-83.74,36.42-108.51-62.65-36.06,20.82-19.15-14.68,141.11-61.39,4.22,3.22-29.44,16.99c.44.64.89,1.28,1.33,1.92l9.38,5.42v7.71l17.85,10.3,35.7,20.61,17.84,10.31,17.85-10.31,6.64-3.83,24.97,19.14Z"/>
      <polygon class="cls-7" points="844.19 195.36 844.19 203.09 832.97 209.55 826.33 213.39 826.33 205.67 844.19 195.36"/>
      <path class="cls-7" d="M844.19,101.88v19.78l-35.71,20.61c-19.03,4.4-38.06,8.79-57.11,13.19l92.82-53.59Z"/>
      <path class="cls-7" d="M844.19,99.41v2.47l-92.82,53.59c.45.64.89,1.27,1.33,1.92l4.91,2.83c-10.41,2.4-20.82,4.8-31.23,7.21l29.44-16.99,88.37-51.02Z"/>
      <polygon class="cls-7" points="826.33 205.67 826.33 213.39 808.48 223.7 808.48 215.97 826.33 205.67"/>
      <path class="cls-7" d="M819.18,291.09l-1.32,1.92-9.39,5.42-17.84,10.3-17.85,10.31-17.84,10.3v-1.14l64.25-37.11Z"/>
      <path class="cls-7" d="M819.18,291.09l-64.25,37.11v-25.25l33.03-19.07c10.41,2.4,20.81,4.8,31.22,7.21Z"/>
      <path class="cls-7" d="M819.18,291.09c-10.41-2.4-20.81-4.8-31.22-7.21l4.9-2.83c.45-.64.89-1.28,1.33-1.92l-128.5-74.19v-2.48l108.51,62.65.89.52,44.09,25.45Z"/>
      <polygon class="cls-7" points="808.48 298.42 808.48 306.13 790.64 316.44 790.64 308.72 808.48 298.42"/>
      <polygon class="cls-7" points="808.48 215.97 808.48 223.7 790.64 213.39 790.64 205.67 808.48 215.97"/>
      <path class="cls-7" d="M808.48,214.83v1.14l-17.84-10.3-35.7-20.61-17.85-10.3-9.38-5.42c-.44-.64-.89-1.28-1.33-1.92l82.1,47.41Z"/>
      <path class="cls-7" d="M808.48,189.59v25.25l-82.1-47.41c10.41-2.4,20.82-4.8,31.23-7.21l50.87,29.37Z"/>
      <path class="cls-7" d="M808.48,188.44v1.14l-50.87-29.37-4.91-2.83c-.44-.65-.88-1.28-1.33-1.92l57.11,32.97Z"/>
      <path class="cls-7" d="M808.48,142.28v46.16l-57.11-32.97c19.04-4.4,38.08-8.79,57.11-13.19Z"/>
      <path class="cls-7" d="M794.19,279.13c-.44.64-.88,1.28-1.33,1.92l-4.9,2.83-33.03,19.07v-1.14l39.25-22.67Z"/>
      <path class="cls-7" d="M794.19,279.13l-39.25,22.67v-31.74c13.08,3.03,26.17,6.04,39.25,9.07Z"/>
      <path class="cls-7" d="M794.19,279.13c-13.08-3.03-26.17-6.04-39.25-9.07l-89.25-51.53v-13.59l128.5,74.19Z"/>
      <polygon class="cls-7" points="790.64 308.72 790.64 316.44 772.78 326.75 772.78 319.03 790.64 308.72"/>
      <polygon class="cls-7" points="790.64 205.67 790.64 213.39 754.94 192.77 754.94 185.06 790.64 205.67"/>
      <polygon class="cls-7" points="772.78 319.03 772.78 326.75 754.94 337.05 754.94 329.34 772.78 319.03"/>
      <polygon class="cls-7" points="754.94 329.34 754.94 337.05 737.09 326.75 737.09 319.03 754.94 329.34"/>
      <path class="cls-7" d="M754.94,328.19v1.14l-17.85-10.3-17.84-10.31-17.85-10.3-17.85-10.31-17.84-10.3-17.85-10.3-17.84-10.3-17.85-10.31-9.38-5.42-1.33-1.91,153.51,88.62Z"/>
      <path class="cls-7" d="M754.94,302.95v25.25l-153.51-88.62c10.41-2.41,20.82-4.82,31.23-7.22l122.28,70.6Z"/>
      <path class="cls-7" d="M754.94,301.8v1.14l-122.28-70.6-4.91-2.83c-.44-.64-.88-1.27-1.33-1.92l128.51,74.2Z"/>
      <polygon class="cls-7" points="754.94 270.07 754.94 301.8 626.43 227.6 665.69 218.54 754.94 270.07"/>
      <polygon class="cls-7" points="754.94 185.06 754.94 192.77 737.09 182.47 737.09 174.76 754.94 185.06"/>
      <polygon class="cls-7" points="719.24 308.72 737.09 319.03 737.09 326.75 719.24 316.44 719.24 308.72"/>
      <polygon class="cls-7" points="719.24 308.72 719.24 316.44 701.39 306.13 701.39 298.42 719.24 308.72"/>
      <polygon class="cls-7" points="701.39 298.42 701.39 306.13 683.53 295.83 683.53 288.12 683.53 288.11 701.39 298.42"/>
      <polygon class="cls-7" points="683.53 288.12 683.53 295.83 665.69 285.53 665.69 277.81 683.53 288.11 683.53 288.12"/>
      <polygon class="cls-7" points="665.69 277.81 665.69 285.53 647.84 275.22 647.84 267.5 665.69 277.81"/>
      <polygon class="cls-7" points="665.69 204.95 665.69 218.54 626.43 227.6 665.69 204.95"/>
      <path class="cls-7" d="M665.69,202.46v2.48l-39.27,22.66c.45.65.89,1.28,1.33,1.92l4.91,2.83c-10.41,2.4-20.82,4.8-31.23,7.22l27.53-15.9.67-.38,36.06-20.82Z"/>
      <polygon class="cls-7" points="629.99 257.2 647.84 267.5 647.84 275.22 629.99 264.92 629.99 257.2"/>
      <polygon class="cls-7" points="612.14 246.89 629.99 257.2 629.99 264.92 612.14 254.62 612.14 246.89"/>
      <polygon class="cls-7" points="629.64 223.28 628.97 223.67 610.49 209.51 610.49 208.61 629.64 223.28"/>
      <path class="cls-7" d="M550.41,167.39l-1.33,1.92-9.38,5.42-17.84,10.3-17.85,10.31-17.85,10.3-17.84,10.3v-1.14l82.1-47.41Z"/>
      <path class="cls-7" d="M550.41,167.39l-82.1,47.41v-25.23l50.88-29.38c10.41,2.4,20.81,4.8,31.22,7.21Z"/>
      <path class="cls-7" d="M550.41,167.39c-10.41-2.4-20.81-4.8-31.22-7.21l4.9-2.83c.44-.64.89-1.28,1.33-1.92l-57.11-32.97v-2.47l82.1,47.4Z"/>
      <polygon class="cls-7" points="539.71 174.72 539.71 182.44 521.86 192.75 521.86 185.02 539.71 174.72"/>
      <path class="cls-7" d="M525.42,155.44c-.44.64-.89,1.28-1.33,1.92l-4.9,2.83-50.88,29.38h0v-1.15l57.11-32.97Z"/>
      <path class="cls-7" d="M525.42,155.44l-57.11,32.97v-46.16c19.03,4.4,38.08,8.79,57.11,13.19Z"/>
      <path class="cls-7" d="M525.42,155.44c-19.03-4.4-38.08-8.79-57.11-13.19v-19.78l57.11,32.97Z"/>
      <polygon class="cls-7" points="521.86 185.02 521.86 192.75 504.01 203.05 504.01 195.34 521.86 185.02"/>
      <polygon class="cls-7" points="517.78 228.65 517.78 229.56 376.65 290.95 376.65 290.05 517.78 228.65"/>
      <path class="cls-13" d="M517.78,228.65l-141.13,61.39-10.02-7.68,12.44-7.18,17.85-10.3v-7.71l9.38-5.42c.44-.65.88-1.28,1.33-1.92l-82.11-47.4-36.04,20.81-19.15-14.68,141.11-61.39,4.2,3.22-29.43,16.99c.44.65.88,1.28,1.32,1.92l9.39,5.42v7.71l17.84,10.31,17.85,10.3,17.84,10.3,17.85,10.31,17.84-10.31,6.65-3.83,24.97,19.14Z"/>
      <polygon class="cls-7" points="504.01 195.34 504.01 203.05 492.81 209.52 486.15 213.35 486.15 205.64 504.01 195.34"/>
      <polygon class="cls-7" points="486.15 205.64 486.15 213.35 468.31 223.67 468.31 215.94 486.15 205.64"/>
      <polygon class="cls-7" points="468.31 215.94 468.31 223.67 450.46 213.35 450.46 205.64 468.31 215.94"/>
      <path class="cls-7" d="M468.31,214.8v1.14l-17.85-10.3-17.84-10.3-17.85-10.31-17.84-10.3-9.39-5.42c-.44-.64-.88-1.27-1.32-1.92l82.1,47.41Z"/>
      <path class="cls-7" d="M468.31,189.56v25.23l-82.1-47.41c10.41-2.4,20.81-4.8,31.22-7.21l50.88,29.38Z"/>
      <path class="cls-7" d="M468.31,189.55h0s-50.88-29.37-50.88-29.37l-4.9-2.83c-.45-.64-.89-1.28-1.33-1.92l57.11,32.97v1.14Z"/>
      <path class="cls-7" d="M468.31,142.25v46.16l-57.11-32.97c19.03-4.4,38.08-8.79,57.11-13.19Z"/>
      <path class="cls-7" d="M468.31,122.46v19.78c-19.03,4.4-38.08,8.79-57.11,13.19l57.11-32.97Z"/>
      <path class="cls-7" d="M468.31,119.99v2.47l-57.11,32.97c.44.64.88,1.28,1.33,1.92l4.9,2.83c-10.41,2.4-20.81,4.8-31.22,7.21l29.43-16.99,52.67-30.41Z"/>
      <polygon class="cls-7" points="450.46 205.64 450.46 213.35 432.62 203.05 432.62 195.34 450.46 205.64"/>
      <polygon class="cls-7" points="432.62 195.34 432.62 203.05 414.76 192.75 414.76 185.02 432.62 195.34"/>
      <polygon class="cls-7" points="414.76 185.02 414.76 192.75 396.92 182.44 396.92 174.72 414.76 185.02"/>
      <path class="cls-7" d="M407.62,249.83c-.45.64-.89,1.27-1.33,1.92l-9.38,5.42-17.85,10.3-17.85,10.3h0s-17.84,10.31-17.84,10.31l-17.85,10.3v-1.14l82.11-47.41Z"/>
      <path class="cls-7" d="M407.62,249.83l-82.11,47.41v-25.25l50.88-29.37c10.41,2.4,20.81,4.8,31.23,7.21Z"/>
      <path class="cls-7" d="M407.62,249.83c-10.42-2.4-20.82-4.8-31.23-7.21l4.9-2.83c.45-.65.89-1.28,1.33-1.92l-57.11-32.97v-2.47l82.11,47.4Z"/>
      <polygon class="cls-7" points="396.92 257.17 396.92 264.88 379.06 275.18 379.06 267.47 396.92 257.17"/>
      <path class="cls-7" d="M382.62,237.88c-.44.64-.88,1.27-1.33,1.92l-4.9,2.83-50.88,29.37v-1.14l57.11-32.97Z"/>
      <path class="cls-7" d="M382.62,237.88l-57.11,32.97v-46.16c19.04,4.4,38.08,8.79,57.11,13.19Z"/>
      <path class="cls-7" d="M382.62,237.88c-19.03-4.4-38.06-8.79-57.11-13.19v-19.78l57.11,32.97Z"/>
      <polygon class="cls-7" points="379.06 267.47 379.06 275.18 366.63 282.37 365.96 282.76 361.21 285.5 361.21 277.78 361.21 277.77 379.06 267.47"/>
      <polygon class="cls-7" points="376.65 290.05 376.65 290.95 365.96 282.76 366.63 282.37 376.65 290.05"/>
      <polygon class="cls-7" points="361.21 277.78 361.21 285.5 343.37 295.8 343.37 288.08 361.21 277.78"/>
      <polygon class="cls-7" points="343.37 288.08 343.37 295.8 325.51 306.1 325.51 298.39 343.37 288.08"/>
      <polygon class="cls-7" points="325.51 298.39 325.51 306.1 307.67 295.8 307.67 288.08 325.51 298.39"/>
      <path class="cls-7" d="M325.51,297.24v1.14l-17.84-10.3-17.85-10.31-17.84-10.3-17.85-10.3-9.38-5.42-1.33-1.92,82.1,47.41Z"/>
      <path class="cls-7" d="M325.51,272v25.25l-82.1-47.41c10.41-2.4,20.82-4.8,31.23-7.21l50.87,29.37Z"/>
      <path class="cls-7" d="M325.51,270.85v1.14l-50.87-29.37-4.91-2.83c-.44-.65-.88-1.28-1.33-1.92l57.11,32.97Z"/>
      <path class="cls-7" d="M325.51,224.69v46.16l-57.11-32.97c19.04-4.4,38.08-8.79,57.11-13.19Z"/>
      <path class="cls-7" d="M325.51,204.91v19.78c-19.03,4.4-38.06,8.79-57.11,13.19l57.11-32.97Z"/>
      <path class="cls-7" d="M325.51,202.44v2.47l-57.11,32.97c.45.64.89,1.27,1.33,1.92l4.91,2.83c-10.41,2.4-20.82,4.8-31.23,7.21l45.39-26.2.67-.38,36.04-20.81Z"/>
      <polygon class="cls-7" points="307.67 288.08 307.67 295.8 289.82 285.5 289.82 277.77 307.67 288.08"/>
      <polygon class="cls-7" points="289.82 277.77 289.82 285.5 271.97 275.18 271.97 267.47 289.82 277.77"/>
      <polygon class="cls-7" points="289.47 223.25 288.8 223.63 270.32 209.47 270.32 208.57 289.47 223.25"/>
      <polygon class="cls-7" points="271.97 267.47 271.97 275.18 254.12 264.88 254.12 257.17 271.97 267.47"/>
      <path class="cls-7" d="M243.33,209.01l-2.23,1.61-11.16,6.44-17.85,10.31-17.84,10.3-17.85,10.3-17.85,10.31v-.32l84.79-48.95Z"/>
      <path class="cls-7" d="M243.33,209.01l-84.79,48.95v-32.46l53.55-30.92c10.42,4.8,20.82,9.62,31.24,14.42Z"/>
      <path class="cls-7" d="M243.33,209.01c-10.42-4.8-20.82-9.62-31.24-14.42l-53.55-30.92v-3.6l84.79,48.94Z"/>
      <polygon class="cls-7" points="229.95 217.06 229.95 225.5 212.09 235.8 212.09 227.37 229.95 217.06"/>
      <polygon class="cls-7" points="212.09 227.37 212.09 235.8 194.25 246.12 194.25 237.67 212.09 227.37"/>
      <path class="cls-7" d="M212.09,194.59l-53.55,30.92v-3.6l14.74-8.51,3.12-1.8,4.18-2.41.28-.16c10.42-4.8,20.83-9.62,31.24-14.42Z"/>
      <path class="cls-7" d="M212.09,194.59c-10.41,4.8-20.82,9.62-31.24,14.42l-22.31-12.88v-32.46l53.55,30.92Z"/>
      <polygon class="cls-7" points="194.25 237.67 194.25 246.12 176.4 256.42 176.4 247.98 194.25 237.67"/>
      <path class="cls-7" d="M180.85,209.01l-.28.16-4.18-2.41-17.85-10.3h0v-.32l22.31,12.88Z"/>
      <polygon class="cls-7" points="180.58 209.17 176.4 211.59 176.4 206.76 180.58 209.17"/>
      <polygon class="cls-7" points="176.4 247.98 176.4 256.42 158.54 266.72 158.54 258.29 176.4 247.98"/>
      <polygon class="cls-7" points="176.4 206.76 176.4 211.59 173.28 213.39 158.54 204.89 158.54 196.46 176.4 206.76"/>
      <polygon class="cls-7" points="173.28 213.39 158.54 221.9 143.82 213.39 158.54 204.89 173.28 213.39"/>
      <polygon class="cls-7" points="158.54 258.29 158.54 266.72 140.7 256.42 140.7 247.98 158.54 258.29"/>
      <path class="cls-7" d="M158.54,257.97v.32l-17.84-10.31v-.32l17.84,10.31Z"/>
      <path class="cls-7" d="M158.54,225.5v32.46l-17.84-10.31v-32.45l17.84,10.3Z"/>
      <path class="cls-7" d="M158.54,221.9v3.6l-17.84-10.3h0s-.01-.01-.01-.01l-35.69-20.6c10.41,4.8,20.82,9.62,31.23,14.42l.29.16,4.18,2.41,3.12,1.8,14.72,8.51Z"/>
      <polygon class="cls-7" points="158.54 196.46 158.54 204.89 143.82 213.39 140.7 211.59 140.7 206.76 158.54 196.46"/>
      <path class="cls-7" d="M158.54,196.45h0s-17.84,10.31-17.84,10.31l-4.18,2.41-.29-.16,22.31-12.88v.31Z"/>
      <path class="cls-7" d="M158.54,163.67v32.46l-22.31,12.88c-10.41-4.8-20.82-9.62-31.23-14.42l53.54-30.92Z"/>
      <path class="cls-7" d="M158.54,160.07v3.6l-53.54,30.92-35.7,20.6c-10.42,4.82-20.83,9.62-31.24,14.44l35.7-20.61,84.78-48.94Z"/>
      <polygon class="cls-7" points="140.7 247.98 140.7 256.42 122.84 266.72 122.84 258.29 140.7 247.98"/>
      <path class="cls-7" d="M140.7,247.65v.32l-17.85,10.31-17.84,10.3v-.32l35.7-20.61Z"/>
      <path class="cls-7" d="M140.7,215.2v32.45l-35.7,20.61v-32.46l35.69-20.61h.01Z"/>
      <polygon class="cls-7" points="140.7 215.19 140.7 215.2 140.69 215.19 140.7 215.19"/>
      <polygon class="cls-7" points="140.7 206.76 140.7 211.59 136.52 209.17 140.7 206.76"/>
      <path class="cls-7" d="M140.69,215.19l-35.69,20.61v-3.6l4.18-2.41.28-.16c10.42-4.82,20.81-9.62,31.23-14.44Z"/>
      <path class="cls-7" d="M140.69,215.19c-10.42,4.82-20.81,9.62-31.23,14.44l-4.46-2.58v-32.46l35.69,20.6Z"/>
      <polygon class="cls-7" points="122.84 258.29 122.84 266.72 105 277.03 105 268.59 122.84 258.29"/>
      <path class="cls-7" d="M109.46,229.62l-.28.16-4.18-2.41v-.32l4.46,2.58Z"/>
      <polygon class="cls-7" points="109.18 229.79 105 232.2 105 227.37 109.18 229.79"/>
      <polygon class="cls-7" points="105 268.59 105 277.03 87.15 266.72 87.15 258.29 105 268.59"/>
      <path class="cls-7" d="M105,268.27v.32l-17.85-10.3-17.84-10.31-17.85-10.3-11.16-6.44-2.23-1.61,66.94,38.64Z"/>
      <path class="cls-7" d="M105,235.8v32.46l-66.94-38.64c10.41-4.82,20.82-9.62,31.24-14.44l35.7,20.61Z"/>
      <path class="cls-7" d="M105,232.2v3.6l-35.7-20.61c10.41,4.82,20.82,9.62,31.23,14.44l.29.16,4.18,2.41Z"/>
      <polygon class="cls-7" points="105 227.37 105 232.2 100.82 229.79 105 227.37"/>
      <path class="cls-7" d="M105,227.05v.32l-4.18,2.41-.29-.16,4.47-2.58Z"/>
      <path class="cls-7" d="M105,194.59v32.46l-4.47,2.58c-10.41-4.82-20.82-9.62-31.23-14.44l35.7-20.6Z"/>
      <polygon class="cls-7" points="69.3 247.98 87.15 258.29 87.15 266.72 69.3 256.42 69.3 247.98"/>
      <polygon class="cls-7" points="69.3 247.98 69.3 256.42 51.45 246.12 51.45 237.67 69.3 247.98"/>
    </g>
  </g>
  <g id="Layer_5" data-name="Layer 5" class="cls-11">
    <polygon points="874.14 375.96 843.05 344.87 836.57 348.61 790.95 322.28 781.16 327.93 826.77 354.27 820.29 358.01 874.14 375.96"/>
    <polygon points="977.08 75.06 924.34 92.64 930.69 96.31 886.01 122.11 895.6 127.64 940.28 101.85 946.63 105.52 977.08 75.06"/>
    <polygon points="542.58 182.67 589.75 198.39 584.07 201.67 624.02 224.74 615.45 229.69 575.49 206.62 569.81 209.9 542.58 182.67"/>
    <g class="cls-12">
      <polygon points="690.51 246.42 717.74 219.19 723.42 222.47 763.36 199.4 771.94 204.36 732 227.42 737.67 230.7 690.51 246.42"/>
    </g>
    <polygon points="1143.17 380.83 1120.33 357.99 1114.37 361.44 987.42 288.14 982.62 290.91 1109.57 364.2 1103.61 367.65 1143.17 380.83"/>
    <polygon points="1163.58 215.82 1196.57 226.82 1177.53 207.77 1173.05 210.35 1132.99 187.22 1127.99 190.11 1168.05 213.24 1163.58 215.82"/>
    <g class="cls-8">
      <polygon points="1072.92 314.2 1105.92 325.2 1086.87 306.15 1082.4 308.74 1042.34 285.61 1037.34 288.49 1077.4 311.62 1072.92 314.2"/>
    </g>
    <g class="cls-10">
      <polygon points="1162.42 172.9 1184 180.09 1171.54 167.63 1168.62 169.32 1142.41 154.19 1139.14 156.08 1165.34 171.21 1162.42 172.9"/>
    </g>
    <g class="cls-9">
      <polygon points="1071.34 117.33 1056.49 102.48 1082.22 111.05 1078.73 113.07 1109.97 131.1 1106.07 133.35 1074.83 115.32 1071.34 117.33"/>
    </g>
    <polygon points="1153.03 63.79 1158.46 43.5 1163.9 70.07 1160.41 68.06 1160.41 104.13 1156.52 101.88 1156.52 65.81 1153.03 63.79"/>
    <polygon points="1111.23 115.42 1105.79 135.71 1100.36 109.14 1103.84 111.15 1103.84 75.08 1107.74 77.34 1107.74 113.41 1111.23 115.42"/>
    <g class="cls-1">
      <polygon points="1019.45 164.27 1035.46 169.61 1033.53 170.72 1047.08 178.55 1044.17 180.23 1030.62 172.4 1028.69 173.51 1019.45 164.27"/>
    </g>
  </g>
  <g id="Peopl">
    <g>
      <g>
        <path d="M379.88,222.78c.12-2.48,1.68-7.53,3.19-7.53,1.5.14,1.41,6.78,1.39,7.54h-.15s-.35-2.64-1.92-2.64h-.11c-1.68.13-2.24,2.63-2.25,2.65l-.15-.02Z"/>
        <path class="cls-13" d="M383.07,215.32s.04,0,.06,0c1.41.14,1.26,7.46,1.26,7.46,0,0-.34-2.71-1.99-2.71-.04,0-.08,0-.12,0-1.76.14-2.31,2.71-2.31,2.71.13-2.52,1.71-7.46,3.11-7.46M383.07,215.17c-1.55,0-3.14,5.1-3.26,7.6l.3.04s.55-2.46,2.18-2.59c.04,0,.07,0,.11,0,1.5,0,1.84,2.56,1.84,2.58l.3-.02c.03-1.25.08-7.47-1.39-7.61-.02,0-.05,0-.07,0h0Z"/>
      </g>
      <g>
        <path d="M382.96,215.1c-.81,0-1.46-.53-1.46-1.18s.66-1.18,1.46-1.18,1.46.53,1.46,1.18-.66,1.18-1.46,1.18Z"/>
        <path class="cls-13" d="M382.96,212.82c.77,0,1.39.49,1.39,1.1s-.62,1.1-1.39,1.1-1.39-.49-1.39-1.1.62-1.1,1.39-1.1M382.96,212.67c-.85,0-1.54.56-1.54,1.25s.69,1.25,1.54,1.25,1.54-.56,1.54-1.25-.69-1.25-1.54-1.25h0Z"/>
      </g>
    </g>
    <g>
      <g>
        <path d="M348.26,200.95c.12-2.48,1.68-7.53,3.19-7.53,1.5.14,1.41,6.78,1.39,7.54h-.15s-.35-2.64-1.92-2.64h-.11c-1.68.13-2.24,2.63-2.25,2.65l-.15-.02Z"/>
        <path class="cls-13" d="M351.45,193.49s.04,0,.06,0c1.41.14,1.26,7.46,1.26,7.46,0,0-.34-2.71-1.99-2.71-.04,0-.08,0-.12,0-1.76.14-2.31,2.71-2.31,2.71.13-2.52,1.71-7.46,3.11-7.46M351.45,193.34c-1.55,0-3.14,5.1-3.26,7.6l.3.04s.55-2.46,2.18-2.59c.04,0,.07,0,.11,0,1.5,0,1.84,2.56,1.84,2.58l.3-.02c.03-1.25.08-7.47-1.39-7.61-.02,0-.05,0-.07,0h0Z"/>
      </g>
      <g>
        <path d="M351.33,193.28c-.81,0-1.46-.53-1.46-1.18s.66-1.18,1.46-1.18,1.46.53,1.46,1.18-.66,1.18-1.46,1.18Z"/>
        <path class="cls-13" d="M351.33,191c.77,0,1.39.49,1.39,1.1s-.62,1.1-1.39,1.1-1.39-.49-1.39-1.1.62-1.1,1.39-1.1M351.33,190.85c-.85,0-1.54.56-1.54,1.25s.69,1.25,1.54,1.25,1.54-.56,1.54-1.25-.69-1.25-1.54-1.25h0Z"/>
      </g>
    </g>
    <g>
      <g>
        <path d="M343.54,202.6c.12-2.48,1.68-7.53,3.19-7.53,1.5.14,1.41,6.78,1.39,7.54h-.15s-.35-2.64-1.92-2.64h-.11c-1.68.13-2.24,2.63-2.25,2.65l-.15-.02Z"/>
        <path class="cls-13" d="M346.73,195.15s.04,0,.06,0c1.41.14,1.26,7.46,1.26,7.46,0,0-.34-2.71-1.99-2.71-.04,0-.08,0-.12,0-1.76.14-2.31,2.71-2.31,2.71.13-2.52,1.71-7.46,3.11-7.46M346.73,195c-1.55,0-3.14,5.1-3.26,7.6l.3.04s.55-2.46,2.18-2.59c.04,0,.07,0,.11,0,1.5,0,1.84,2.56,1.84,2.58l.3-.02c.03-1.25.08-7.47-1.39-7.61-.02,0-.05,0-.07,0h0Z"/>
      </g>
      <g>
        <path d="M346.62,194.93c-.81,0-1.46-.53-1.46-1.18s.66-1.18,1.46-1.18,1.46.53,1.46,1.18-.66,1.18-1.46,1.18Z"/>
        <path class="cls-13" d="M346.62,192.65c.77,0,1.39.49,1.39,1.1s-.62,1.1-1.39,1.1-1.39-.49-1.39-1.1.62-1.1,1.39-1.1M346.62,192.5c-.85,0-1.54.56-1.54,1.25s.69,1.25,1.54,1.25,1.54-.56,1.54-1.25-.69-1.25-1.54-1.25h0Z"/>
      </g>
    </g>
    <g>
      <g>
        <path d="M408.48,207.31c.12-2.48,1.68-7.53,3.19-7.53,1.5.14,1.41,6.78,1.39,7.54h-.15s-.35-2.64-1.92-2.64h-.11c-1.68.13-2.24,2.63-2.25,2.65l-.15-.02Z"/>
        <path class="cls-13" d="M411.67,199.85s.04,0,.06,0c1.41.14,1.26,7.46,1.26,7.46,0,0-.34-2.71-1.99-2.71-.04,0-.08,0-.12,0-1.76.14-2.31,2.71-2.31,2.71.13-2.52,1.71-7.46,3.11-7.46M411.67,199.7c-1.55,0-3.14,5.1-3.26,7.6l.3.04s.55-2.46,2.18-2.59c.04,0,.07,0,.11,0,1.5,0,1.84,2.56,1.84,2.58l.3-.02c.03-1.25.08-7.47-1.39-7.61-.02,0-.05,0-.07,0h0Z"/>
      </g>
      <g>
        <path d="M411.56,199.64c-.81,0-1.46-.53-1.46-1.18s.66-1.18,1.46-1.18,1.46.53,1.46,1.18-.66,1.18-1.46,1.18Z"/>
        <path class="cls-13" d="M411.56,197.36c.77,0,1.39.49,1.39,1.1s-.62,1.1-1.39,1.1-1.39-.49-1.39-1.1.62-1.1,1.39-1.1M411.56,197.21c-.85,0-1.54.56-1.54,1.25s.69,1.25,1.54,1.25,1.54-.56,1.54-1.25-.69-1.25-1.54-1.25h0Z"/>
      </g>
    </g>
    <g>
      <g>
        <path d="M412.51,209.39c.12-2.48,1.68-7.53,3.19-7.53,1.5.14,1.41,6.78,1.39,7.54h-.15s-.35-2.64-1.92-2.64h-.11c-1.68.13-2.24,2.63-2.25,2.65l-.15-.02Z"/>
        <path class="cls-13" d="M415.7,201.94s.04,0,.06,0c1.41.14,1.26,7.46,1.26,7.46,0,0-.34-2.71-1.99-2.71-.04,0-.08,0-.12,0-1.76.14-2.31,2.71-2.31,2.71.13-2.52,1.71-7.46,3.11-7.46M415.7,201.79c-1.55,0-3.14,5.1-3.26,7.6l.3.04s.55-2.46,2.18-2.59c.04,0,.07,0,.11,0,1.5,0,1.84,2.56,1.84,2.58l.3-.02c.03-1.25.08-7.47-1.39-7.61-.02,0-.05,0-.07,0h0Z"/>
      </g>
      <g>
        <path d="M415.59,201.72c-.81,0-1.46-.53-1.46-1.18s.66-1.18,1.46-1.18,1.46.53,1.46,1.18-.66,1.18-1.46,1.18Z"/>
        <path class="cls-13" d="M415.59,199.44c.77,0,1.39.49,1.39,1.1s-.62,1.1-1.39,1.1-1.39-.49-1.39-1.1.62-1.1,1.39-1.1M415.59,199.29c-.85,0-1.54.56-1.54,1.25s.69,1.25,1.54,1.25,1.54-.56,1.54-1.25-.69-1.25-1.54-1.25h0Z"/>
      </g>
    </g>
    <g>
      <g>
        <path d="M389.44,225.28c.12-2.48,1.68-7.53,3.19-7.53,1.5.14,1.41,6.78,1.39,7.54h-.15s-.35-2.64-1.92-2.64h-.11c-1.68.13-2.24,2.63-2.25,2.65l-.15-.02Z"/>
        <path class="cls-13" d="M392.63,217.82s.04,0,.06,0c1.41.14,1.26,7.46,1.26,7.46,0,0-.34-2.71-1.99-2.71-.04,0-.08,0-.12,0-1.76.14-2.31,2.71-2.31,2.71.13-2.52,1.71-7.46,3.11-7.46M392.63,217.67c-1.55,0-3.14,5.1-3.26,7.6l.3.04s.55-2.46,2.18-2.59c.04,0,.07,0,.11,0,1.5,0,1.84,2.56,1.84,2.58l.3-.02c.03-1.25.08-7.47-1.39-7.61-.02,0-.05,0-.07,0h0Z"/>
      </g>
      <g>
        <path d="M392.52,217.6c-.81,0-1.46-.53-1.46-1.18s.66-1.18,1.46-1.18,1.46.53,1.46,1.18-.66,1.18-1.46,1.18Z"/>
        <path class="cls-13" d="M392.52,215.32c.77,0,1.39.49,1.39,1.1s-.62,1.1-1.39,1.1-1.39-.49-1.39-1.1.62-1.1,1.39-1.1M392.52,215.17c-.85,0-1.54.56-1.54,1.25s.69,1.25,1.54,1.25,1.54-.56,1.54-1.25-.69-1.25-1.54-1.25h0Z"/>
      </g>
    </g>
    <g>
      <g>
        <path d="M393.83,225.28c.12-2.48,1.68-7.53,3.19-7.53,1.5.14,1.41,6.78,1.39,7.54h-.15s-.35-2.64-1.92-2.64h-.11c-1.68.13-2.24,2.63-2.25,2.65l-.15-.02Z"/>
        <path class="cls-13" d="M397.02,217.82s.04,0,.06,0c1.41.14,1.26,7.46,1.26,7.46,0,0-.34-2.71-1.99-2.71-.04,0-.08,0-.12,0-1.76.14-2.31,2.71-2.31,2.71.13-2.52,1.71-7.46,3.11-7.46M397.02,217.67c-1.55,0-3.14,5.1-3.26,7.6l.3.04s.55-2.46,2.18-2.59c.04,0,.07,0,.11,0,1.5,0,1.84,2.56,1.84,2.58l.3-.02c.03-1.25.08-7.47-1.39-7.61-.02,0-.05,0-.07,0h0Z"/>
      </g>
      <g>
        <path d="M396.9,217.6c-.81,0-1.46-.53-1.46-1.18s.66-1.18,1.46-1.18,1.46.53,1.46,1.18-.66,1.18-1.46,1.18Z"/>
        <path class="cls-13" d="M396.9,215.32c.77,0,1.39.49,1.39,1.1s-.62,1.1-1.39,1.1-1.39-.49-1.39-1.1.62-1.1,1.39-1.1M396.9,215.17c-.85,0-1.54.56-1.54,1.25s.69,1.25,1.54,1.25,1.54-.56,1.54-1.25-.69-1.25-1.54-1.25h0Z"/>
      </g>
    </g>
    <g>
      <g>
        <path d="M391.66,229.01c.12-2.48,1.68-7.53,3.19-7.53,1.5.14,1.41,6.78,1.39,7.54h-.15s-.35-2.64-1.92-2.64h-.11c-1.68.13-2.24,2.63-2.25,2.65l-.15-.02Z"/>
        <path class="cls-13" d="M394.84,221.55s.04,0,.06,0c1.41.14,1.26,7.46,1.26,7.46,0,0-.34-2.71-1.99-2.71-.04,0-.08,0-.12,0-1.76.14-2.31,2.71-2.31,2.71.13-2.52,1.71-7.46,3.11-7.46M394.84,221.4c-1.55,0-3.14,5.1-3.26,7.6l.3.04s.55-2.46,2.18-2.59c.04,0,.07,0,.11,0,1.5,0,1.84,2.56,1.84,2.58l.3-.02c.03-1.25.08-7.47-1.39-7.61-.02,0-.05,0-.07,0h0Z"/>
      </g>
      <g>
        <path d="M394.73,221.33c-.81,0-1.46-.53-1.46-1.18s.66-1.18,1.46-1.18,1.46.53,1.46,1.18-.66,1.18-1.46,1.18Z"/>
        <path class="cls-13" d="M394.73,219.05c.77,0,1.39.49,1.39,1.1s-.62,1.1-1.39,1.1-1.39-.49-1.39-1.1.62-1.1,1.39-1.1M394.73,218.9c-.85,0-1.54.56-1.54,1.25s.69,1.25,1.54,1.25,1.54-.56,1.54-1.25-.69-1.25-1.54-1.25h0Z"/>
      </g>
    </g>
    <g>
      <g>
        <path d="M395.44,230.26c.12-2.48,1.68-7.53,3.19-7.53,1.5.14,1.41,6.78,1.39,7.54h-.15s-.35-2.64-1.92-2.64h-.11c-1.68.13-2.24,2.63-2.25,2.65l-.15-.02Z"/>
        <path class="cls-13" d="M398.63,222.8s.04,0,.06,0c1.41.14,1.26,7.46,1.26,7.46,0,0-.34-2.71-1.99-2.71-.04,0-.08,0-.12,0-1.76.14-2.31,2.71-2.31,2.71.13-2.52,1.71-7.46,3.11-7.46M398.63,222.65c-1.55,0-3.14,5.1-3.26,7.6l.3.04s.55-2.46,2.18-2.59c.04,0,.07,0,.11,0,1.5,0,1.84,2.56,1.84,2.58l.3-.02c.03-1.25.08-7.47-1.39-7.61-.02,0-.05,0-.07,0h0Z"/>
      </g>
      <g>
        <path d="M398.52,222.58c-.81,0-1.46-.53-1.46-1.18s.66-1.18,1.46-1.18,1.46.53,1.46,1.18-.66,1.18-1.46,1.18Z"/>
        <path class="cls-13" d="M398.52,220.3c.77,0,1.39.49,1.39,1.1s-.62,1.1-1.39,1.1-1.39-.49-1.39-1.1.62-1.1,1.39-1.1M398.52,220.15c-.85,0-1.54.56-1.54,1.25s.69,1.25,1.54,1.25,1.54-.56,1.54-1.25-.69-1.25-1.54-1.25h0Z"/>
      </g>
    </g>
  </g>
  <g id="ConceptDiagram::Med">
    <line class="cls-5" x1="1254.81" y1="410.42" x2="1255.48" y2="408.89"/>
    <path class="cls-5" d="M105.04,268.17v.32"/>
    <path class="cls-5" d="M140.74,247.88v-.32"/>
    <path class="cls-5" d="M105.04,232.1v3.61"/>
    <path class="cls-5" d="M325.56,204.81v-2.47"/>
    <line class="cls-5" x1="465.76" y1="187.96" x2="465.76" y2="187.96"/>
    <line class="cls-5" x1="665.73" y1="218.44" x2="626.47" y2="227.51"/>
    <line class="cls-5" x1="964.53" y1="297.18" x2="982.38" y2="286.88"/>
    <line class="cls-5" x1="982.38" y1="286.88" x2="982.38" y2="273.38"/>
    <line class="cls-5" x1="964.53" y1="297.18" x2="964.53" y2="281.88"/>
    <line class="cls-5" x1="946.68" y1="286.88" x2="964.53" y2="297.18"/>
    <line class="cls-5" x1="1084.13" y1="128.59" x2="1087.7" y2="129"/>
    <line class="cls-5" x1="1084.13" y1="128.59" x2="1063.3" y2="140.61"/>
    <line class="cls-5" x1="910.99" y1="266.27" x2="928.83" y2="276.57"/>
    <line class="cls-5" x1="910.99" y1="266.27" x2="910.99" y2="258.55"/>
    <line class="cls-5" x1="1232.27" y1="384.78" x2="1255.48" y2="408.89"/>
    <line class="cls-5" x1="1214.43" y1="260.08" x2="1232.27" y2="249.78"/>
    <line class="cls-5" x1="1232.27" y1="249.78" x2="1232.27" y2="242.06"/>
    <line class="cls-5" x1="1196.57" y1="249.78" x2="1196.57" y2="233.29"/>
    <line class="cls-5" x1="1196.57" y1="249.78" x2="1214.43" y2="260.08"/>
    <line class="cls-5" x1="194.29" y1="246.01" x2="212.14" y2="235.71"/>
    <line class="cls-5" x1="212.14" y1="235.71" x2="212.14" y2="227.27"/>
    <line class="cls-5" x1="158.59" y1="204.79" x2="158.59" y2="196.35"/>
    <line class="cls-5" x1="1232.27" y1="384.78" x2="1214.43" y2="395.08"/>
    <line class="cls-5" x1="176.44" y1="256.32" x2="194.29" y2="246.01"/>
    <line class="cls-5" x1="194.29" y1="246.01" x2="194.29" y2="237.57"/>
    <line class="cls-5" x1="176.44" y1="256.32" x2="176.44" y2="247.88"/>
    <line class="cls-5" x1="928.83" y1="276.57" x2="928.83" y2="268.85"/>
    <line class="cls-5" x1="325.56" y1="306.01" x2="343.41" y2="295.7"/>
    <line class="cls-5" x1="343.41" y1="295.7" x2="343.41" y2="287.98"/>
    <line class="cls-5" x1="325.56" y1="306.01" x2="325.56" y2="298.29"/>
    <line class="cls-5" x1="307.71" y1="295.7" x2="325.56" y2="306.01"/>
    <path class="cls-5" d="M550.46,167.29c-.44.64-.88,1.28-1.33,1.91"/>
    <path class="cls-5" d="M468.35,215.84v-1.15"/>
    <path class="cls-5" d="M244.78,251.65c-.44-.64-.88-1.28-1.33-1.91"/>
    <line class="cls-5" x1="1143.03" y1="400.24" x2="1160.88" y2="410.54"/>
    <line class="cls-5" x1="1143.03" y1="400.24" x2="1143.03" y2="392.52"/>
    <line class="cls-5" x1="719.28" y1="316.34" x2="719.28" y2="308.63"/>
    <line class="cls-5" x1="719.28" y1="316.34" x2="737.13" y2="326.65"/>
    <path class="cls-5" d="M971.68,148.17c.44.64.88,1.28,1.33,1.91"/>
    <line class="cls-5" x1="1012.73" y1="124.47" x2="1035.93" y2="127.14"/>
    <line class="cls-5" x1="1012.73" y1="124.47" x2="971.68" y2="148.17"/>
    <line class="cls-5" x1="1035.93" y1="127.14" x2="1035.93" y2="129.37"/>
    <line class="cls-5" x1="1232.27" y1="203.4" x2="1255.48" y2="227.52"/>
    <line class="cls-5" x1="1254.81" y1="229.05" x2="1255.48" y2="227.52"/>
    <line class="cls-5" x1="1219.11" y1="249.66" x2="1219.78" y2="248.13"/>
    <line class="cls-5" x1="1196.57" y1="224.01" x2="1195.91" y2="225.55"/>
    <line class="cls-5" x1="1196.57" y1="224.01" x2="1232.27" y2="203.4"/>
    <line class="cls-5" x1="1053.78" y1="101.38" x2="1071.63" y2="91.08"/>
    <line class="cls-5" x1="1071.63" y1="91.08" x2="1071.63" y2="74.59"/>
    <line class="cls-5" x1="1071.63" y1="74.59" x2="1067.4" y2="72.14"/>
    <line class="cls-5" x1="1053.78" y1="84.89" x2="1071.63" y2="74.59"/>
    <line class="cls-5" x1="1018.08" y1="101.38" x2="1018.08" y2="84.89"/>
    <line class="cls-5" x1="1018.08" y1="101.38" x2="1035.93" y2="111.69"/>
    <line class="cls-5" x1="1035.93" y1="111.69" x2="1035.93" y2="95.2"/>
    <line class="cls-5" x1="1035.93" y1="111.69" x2="1053.78" y2="101.38"/>
    <line class="cls-5" x1="1053.78" y1="101.38" x2="1053.78" y2="84.89"/>
    <line class="cls-5" x1="1053.78" y1="84.89" x2="1044.1" y2="79.3"/>
    <line class="cls-5" x1="1018.08" y1="84.89" x2="1035.93" y2="95.2"/>
    <line class="cls-5" x1="1035.93" y1="95.2" x2="1053.78" y2="84.89"/>
    <line class="cls-5" x1="994.88" y1="161.56" x2="995.54" y2="163.09"/>
    <line class="cls-5" x1="1018.08" y1="139.67" x2="1018.08" y2="137.45"/>
    <line class="cls-5" x1="69.34" y1="256.32" x2="87.19" y2="266.62"/>
    <line class="cls-5" x1="122.89" y1="266.62" x2="140.74" y2="256.32"/>
    <line class="cls-5" x1="140.74" y1="256.32" x2="140.74" y2="247.88"/>
    <line class="cls-5" x1="1183.42" y1="132.94" x2="1184.08" y2="130.65"/>
    <line class="cls-5" x1="1184.08" y1="130.65" x2="1148.38" y2="110.04"/>
    <line class="cls-5" x1="1200.94" y1="230.77" x2="1196.57" y2="233.29"/>
    <line class="cls-5" x1="1196.57" y1="224.01" x2="1219.78" y2="248.13"/>
    <line class="cls-5" x1="946.68" y1="286.88" x2="946.68" y2="279.16"/>
    <path class="cls-5" d="M1089.48,216.18v1.15"/>
    <line class="cls-5" x1="928.83" y1="276.57" x2="946.68" y2="286.88"/>
    <path class="cls-5" d="M1089.48,189.79v1.15"/>
    <line class="cls-5" x1="1125.18" y1="99.12" x2="1096.62" y2="115.6"/>
    <line class="cls-5" x1="1125.18" y1="118.9" x2="1125.18" y2="121.12"/>
    <line class="cls-5" x1="1097.29" y1="117.9" x2="1096.62" y2="115.6"/>
    <path class="cls-5" d="M1125.18,121.12c-2.16-.25-4.32-.5-6.48-.75-2.38-.27-4.76-.55-7.14-.82-4.76-.55-9.52-1.1-14.28-1.65"/>
    <path class="cls-5" d="M1125.18,118.9c-2.38-.27-4.76-.55-7.14-.82-2.38-.28-4.76-.55-7.14-.82-4.76-.55-9.52-1.1-14.28-1.65"/>
    <line class="cls-5" x1="1178.73" y1="420.85" x2="1196.57" y2="431.15"/>
    <line class="cls-5" x1="1232.27" y1="431.15" x2="1250.12" y2="420.85"/>
    <line class="cls-5" x1="1250.12" y1="420.85" x2="1250.12" y2="413.13"/>
    <line class="cls-5" x1="1232.27" y1="431.15" x2="1232.27" y2="423.43"/>
    <line class="cls-5" x1="665.73" y1="285.43" x2="683.58" y2="295.73"/>
    <line class="cls-5" x1="754.98" y1="336.96" x2="772.83" y2="326.65"/>
    <line class="cls-5" x1="754.98" y1="336.96" x2="754.98" y2="329.24"/>
    <line class="cls-5" x1="737.13" y1="326.65" x2="737.13" y2="318.93"/>
    <line class="cls-5" x1="737.13" y1="326.65" x2="754.98" y2="336.96"/>
    <path class="cls-5" d="M926.33,146.72c-.44.64-.88,1.28-1.33,1.91"/>
    <line class="cls-5" x1="772.83" y1="326.65" x2="790.68" y2="316.34"/>
    <line class="cls-5" x1="790.68" y1="316.34" x2="790.68" y2="308.63"/>
    <line class="cls-5" x1="772.83" y1="326.65" x2="772.83" y2="318.93"/>
    <line class="cls-5" x1="701.43" y1="306.04" x2="719.28" y2="316.34"/>
    <line class="cls-5" x1="808.53" y1="223.6" x2="826.38" y2="213.29"/>
    <line class="cls-5" x1="826.38" y1="213.29" x2="826.38" y2="205.57"/>
    <line class="cls-5" x1="808.53" y1="223.6" x2="808.53" y2="215.88"/>
    <line class="cls-5" x1="790.68" y1="213.29" x2="790.68" y2="205.57"/>
    <line class="cls-5" x1="790.68" y1="213.29" x2="808.53" y2="223.6"/>
    <path class="cls-5" d="M602.8,241.38c-.44-.64-.88-1.28-1.33-1.91"/>
    <path class="cls-5" d="M754.98,328.09v1.15"/>
    <line class="cls-5" x1="1125.18" y1="204.43" x2="1125.18" y2="196.72"/>
    <line class="cls-5" x1="1107.33" y1="214.74" x2="1107.33" y2="207.02"/>
    <line class="cls-5" x1="1196.57" y1="204.43" x2="1214.43" y2="194.13"/>
    <line class="cls-5" x1="1214.43" y1="194.13" x2="1214.43" y2="182.29"/>
    <line class="cls-5" x1="1196.57" y1="187.95" x2="1198.39" y2="186.9"/>
    <line class="cls-5" x1="1196.57" y1="204.43" x2="1196.57" y2="187.95"/>
    <line class="cls-5" x1="1178.73" y1="194.13" x2="1178.73" y2="177.64"/>
    <line class="cls-5" x1="1178.73" y1="194.13" x2="1196.57" y2="204.43"/>
    <line class="cls-5" x1="1178.73" y1="177.64" x2="1196.57" y2="187.95"/>
    <line class="cls-5" x1="1178.73" y1="420.85" x2="1178.73" y2="413.13"/>
    <line class="cls-5" x1="1160.88" y1="410.54" x2="1160.88" y2="402.82"/>
    <line class="cls-5" x1="1160.88" y1="410.54" x2="1178.73" y2="420.85"/>
    <path class="cls-5" d="M1214.43,432.59v1.15"/>
    <line class="cls-5" x1="1137.67" y1="388.28" x2="1160.88" y2="364.17"/>
    <line class="cls-5" x1="1137.67" y1="388.28" x2="1138.34" y2="389.81"/>
    <line class="cls-5" x1="1160.88" y1="364.17" x2="1214.43" y2="395.08"/>
    <line class="cls-5" x1="893.14" y1="255.96" x2="910.99" y2="266.27"/>
    <line class="cls-5" x1="893.14" y1="255.96" x2="893.14" y2="248.24"/>
    <line class="cls-5" x1="1092.03" y1="146.28" x2="1125.18" y2="127.14"/>
    <path class="cls-5" d="M788.01,283.78c10.41,2.4,20.82,4.81,31.22,7.21"/>
    <line class="cls-5" x1="912.65" y1="143.56" x2="912.65" y2="143.56"/>
    <line class="cls-5" x1="629.01" y1="223.57" x2="610.53" y2="209.41"/>
    <line class="cls-5" x1="105.04" y1="232.1" x2="105.04" y2="227.27"/>
    <line class="cls-5" x1="1022.31" y1="82.45" x2="1018.08" y2="84.89"/>
    <line class="cls-5" x1="1053.78" y1="71.5" x2="1035.93" y2="81.8"/>
    <line class="cls-5" x1="1012.73" y1="79.12" x2="1035.93" y2="81.8"/>
    <line class="cls-5" x1="626.47" y1="227.51" x2="754.98" y2="301.7"/>
    <line class="cls-5" x1="754.98" y1="269.97" x2="754.98" y2="301.7"/>
    <line class="cls-5" x1="819.23" y1="290.99" x2="754.98" y2="328.09"/>
    <path class="cls-5" d="M754.98,328.09v-25.24"/>
    <line class="cls-5" x1="808.53" y1="306.04" x2="808.53" y2="298.32"/>
    <path class="cls-5" d="M525.46,155.34c-19.03-4.4-38.07-8.79-57.11-13.19"/>
    <line class="cls-5" x1="961.94" y1="261.58" x2="961.94" y2="261.58"/>
    <line class="cls-5" x1="794.24" y1="279.04" x2="754.98" y2="301.7"/>
    <path class="cls-5" d="M754.98,269.97c13.09,3.02,26.17,6.04,39.26,9.07"/>
    <path class="cls-5" d="M808.53,189.49v25.24"/>
    <path class="cls-5" d="M38.11,229.52c.74.54,1.49,1.07,2.23,1.61"/>
    <line class="cls-5" x1="379.11" y1="275.09" x2="379.11" y2="267.37"/>
    <path class="cls-5" d="M946.68,219.89v-13.6"/>
    <line class="cls-5" x1="254.16" y1="264.78" x2="272.01" y2="275.09"/>
    <line class="cls-5" x1="254.16" y1="264.78" x2="254.16" y2="257.07"/>
    <path class="cls-5" d="M158.59,257.86v.32"/>
    <line class="cls-5" x1="1143.03" y1="359.02" x2="1160.88" y2="348.71"/>
    <line class="cls-5" x1="51.49" y1="246.01" x2="51.49" y2="237.57"/>
    <line class="cls-5" x1="51.49" y1="246.01" x2="69.34" y2="256.32"/>
    <line class="cls-5" x1="69.34" y1="256.32" x2="69.34" y2="247.88"/>
    <line class="cls-5" x1="87.19" y1="266.62" x2="105.04" y2="276.93"/>
    <line class="cls-5" x1="105.04" y1="276.93" x2="105.04" y2="268.49"/>
    <line class="cls-5" x1="87.19" y1="266.62" x2="87.19" y2="258.18"/>
    <line class="cls-5" x1="105.04" y1="276.93" x2="122.89" y2="266.62"/>
    <line class="cls-5" x1="122.89" y1="266.62" x2="122.89" y2="258.18"/>
    <line class="cls-5" x1="396.96" y1="182.34" x2="414.8" y2="192.65"/>
    <line class="cls-5" x1="414.8" y1="192.65" x2="414.8" y2="184.93"/>
    <line class="cls-5" x1="1125.18" y1="348.71" x2="1143.03" y2="359.02"/>
    <line class="cls-5" x1="414.8" y1="192.65" x2="432.66" y2="202.95"/>
    <line class="cls-5" x1="432.66" y1="202.95" x2="432.66" y2="195.23"/>
    <path class="cls-5" d="M883.76,242.83c-.44-.64-.88-1.28-1.33-1.91"/>
    <line class="cls-5" x1="959.18" y1="285.23" x2="959.84" y2="286.76"/>
    <path class="cls-5" d="M1170.26,335.58c.44-.64.88-1.28,1.33-1.91"/>
    <line class="cls-5" x1="1125.18" y1="322.95" x2="1125.18" y2="325.17"/>
    <line class="cls-5" x1="1147.72" y1="348.59" x2="1148.38" y2="347.06"/>
    <line class="cls-5" x1="1214.43" y1="441.46" x2="1232.27" y2="431.15"/>
    <line class="cls-5" x1="1214.43" y1="441.46" x2="1214.43" y2="433.74"/>
    <line class="cls-5" x1="1196.57" y1="431.15" x2="1196.57" y2="423.43"/>
    <line class="cls-5" x1="1196.57" y1="431.15" x2="1214.43" y2="441.46"/>
    <line class="cls-5" x1="737.13" y1="182.37" x2="754.98" y2="192.68"/>
    <line class="cls-5" x1="1125.18" y1="348.71" x2="1125.18" y2="332.22"/>
    <line class="cls-5" x1="379.11" y1="275.09" x2="396.96" y2="264.78"/>
    <line class="cls-5" x1="270.36" y1="208.48" x2="411.48" y2="147.08"/>
    <line class="cls-5" x1="270.36" y1="208.48" x2="270.36" y2="209.38"/>
    <line class="cls-5" x1="411.48" y1="147.08" x2="415.68" y2="150.3"/>
    <line class="cls-5" x1="517.82" y1="228.55" x2="517.82" y2="229.46"/>
    <line class="cls-5" x1="376.7" y1="289.95" x2="376.7" y2="290.85"/>
    <line class="cls-5" x1="517.82" y1="229.46" x2="376.7" y2="290.85"/>
    <line class="cls-5" x1="376.7" y1="290.85" x2="366" y2="282.66"/>
    <line class="cls-5" x1="517.82" y1="228.55" x2="376.7" y2="289.95"/>
    <line class="cls-5" x1="376.7" y1="289.95" x2="366.67" y2="282.27"/>
    <line class="cls-5" x1="539.75" y1="182.34" x2="539.75" y2="174.62"/>
    <line class="cls-5" x1="521.9" y1="192.65" x2="539.75" y2="182.34"/>
    <line class="cls-5" x1="1232.27" y1="249.78" x2="1250.12" y2="239.47"/>
    <line class="cls-5" x1="1250.12" y1="239.47" x2="1250.12" y2="231.75"/>
    <line class="cls-5" x1="1242.98" y1="164.66" x2="1219.78" y2="151.26"/>
    <line class="cls-5" x1="1160.88" y1="348.71" x2="1160.88" y2="340.99"/>
    <line class="cls-5" x1="73.8" y1="208.91" x2="158.59" y2="159.96"/>
    <line class="cls-5" x1="105.04" y1="194.49" x2="158.59" y2="163.57"/>
    <path class="cls-5" d="M946.68,203.82v2.47"/>
    <line class="cls-5" x1="1153.07" y1="150.11" x2="1153.73" y2="148.57"/>
    <line class="cls-5" x1="1178.73" y1="148.79" x2="1178.73" y2="135.29"/>
    <line class="cls-5" x1="1143.03" y1="169.4" x2="1178.73" y2="148.79"/>
    <line class="cls-5" x1="1125.72" y1="121.68" x2="1117.74" y2="126.29"/>
    <line class="cls-5" x1="158.59" y1="257.86" x2="140.74" y2="247.56"/>
    <line class="cls-5" x1="432.66" y1="202.95" x2="450.5" y2="213.26"/>
    <line class="cls-5" x1="450.5" y1="213.26" x2="450.5" y2="205.54"/>
    <line class="cls-5" x1="504.05" y1="202.95" x2="504.05" y2="195.23"/>
    <line class="cls-5" x1="1171.58" y1="333.66" x2="1130.53" y2="309.96"/>
    <line class="cls-5" x1="1107.33" y1="312.64" x2="1130.53" y2="309.96"/>
    <line class="cls-5" x1="1107.33" y1="312.64" x2="1107.33" y2="314.86"/>
    <path class="cls-5" d="M1242.98,164.66c-.44.64-.88,1.28-1.32,1.91"/>
    <line class="cls-5" x1="1201.27" y1="189.89" x2="1201.93" y2="188.36"/>
    <line class="cls-5" x1="1178.73" y1="164.24" x2="1196.57" y2="153.94"/>
    <line class="cls-5" x1="1178.73" y1="164.24" x2="1178.73" y2="166.46"/>
    <line class="cls-5" x1="1076.32" y1="71.11" x2="1076.98" y2="68.82"/>
    <line class="cls-5" x1="1076.98" y1="68.82" x2="1053.78" y2="55.42"/>
    <line class="cls-5" x1="1089.48" y1="225.05" x2="1107.33" y2="214.74"/>
    <line class="cls-5" x1="1089.48" y1="225.05" x2="1089.48" y2="217.33"/>
    <line class="cls-5" x1="1071.63" y1="214.74" x2="1089.48" y2="225.05"/>
    <line class="cls-5" x1="982.38" y1="163.21" x2="982.38" y2="155.5"/>
    <line class="cls-5" x1="1000.23" y1="173.52" x2="1018.08" y2="163.21"/>
    <line class="cls-5" x1="1018.08" y1="146.72" x2="1013.72" y2="144.21"/>
    <line class="cls-5" x1="891.48" y1="209.96" x2="891.48" y2="210.86"/>
    <line class="cls-5" x1="1138.94" y1="230.04" x2="1138.94" y2="230.94"/>
    <line class="cls-5" x1="997.82" y1="291.43" x2="997.82" y2="292.33"/>
    <line class="cls-5" x1="1138.94" y1="230.94" x2="1056.09" y2="266.98"/>
    <line class="cls-5" x1="997.82" y1="292.33" x2="987.13" y2="284.14"/>
    <line class="cls-5" x1="1138.94" y1="230.04" x2="1055.2" y2="266.47"/>
    <line class="cls-5" x1="997.82" y1="291.43" x2="987.8" y2="283.75"/>
    <line class="cls-5" x1="1035.93" y1="194.13" x2="1071.63" y2="214.74"/>
    <line class="cls-5" x1="1071.63" y1="214.74" x2="1071.63" y2="207.02"/>
    <line class="cls-5" x1="272.01" y1="275.09" x2="272.01" y2="267.37"/>
    <line class="cls-5" x1="1129.87" y1="194.01" x2="1130.53" y2="192.48"/>
    <line class="cls-5" x1="1018.08" y1="163.21" x2="1035.93" y2="152.91"/>
    <line class="cls-5" x1="1035.93" y1="136.42" x2="1029.82" y2="132.89"/>
    <line class="cls-5" x1="1018.08" y1="146.72" x2="1035.93" y2="136.42"/>
    <line class="cls-5" x1="1232.27" y1="183.82" x2="1232.27" y2="171.98"/>
    <line class="cls-5" x1="1214.43" y1="194.13" x2="1232.27" y2="183.82"/>
    <line class="cls-5" x1="1035.93" y1="151.11" x2="1038.65" y2="153.2"/>
    <line class="cls-5" x1="1018.08" y1="163.21" x2="1018.08" y2="146.72"/>
    <line class="cls-5" x1="891.48" y1="209.96" x2="989.49" y2="167.32"/>
    <path class="cls-5" d="M158.59,196.35v-.32"/>
    <line class="cls-5" x1="158.59" y1="159.96" x2="243.37" y2="208.91"/>
    <line class="cls-5" x1="158.59" y1="163.57" x2="212.14" y2="194.49"/>
    <path class="cls-5" d="M158.59,163.57v-3.61"/>
    <path class="cls-5" d="M243.37,208.91c-.74.54-1.49,1.07-2.23,1.61"/>
    <path class="cls-5" d="M212.14,194.49c10.41,4.81,20.83,9.62,31.24,14.43"/>
    <path class="cls-5" d="M158.59,221.8v3.61"/>
    <line class="cls-5" x1="862.07" y1="192.68" x2="879.92" y2="182.37"/>
    <line class="cls-5" x1="879.92" y1="182.37" x2="879.92" y2="174.66"/>
    <line class="cls-5" x1="862.07" y1="192.68" x2="862.07" y2="184.96"/>
    <line class="cls-5" x1="272.01" y1="275.09" x2="289.86" y2="285.39"/>
    <path class="cls-5" d="M325.56,298.29v-1.15"/>
    <path class="cls-5" d="M325.56,270.75v1.15"/>
    <line class="cls-5" x1="289.86" y1="285.39" x2="289.86" y2="277.68"/>
    <line class="cls-5" x1="754.98" y1="192.68" x2="790.68" y2="213.29"/>
    <line class="cls-5" x1="754.98" y1="192.68" x2="754.98" y2="184.96"/>
    <line class="cls-5" x1="307.71" y1="295.7" x2="307.71" y2="287.98"/>
    <line class="cls-5" x1="647.88" y1="275.12" x2="665.73" y2="285.43"/>
    <line class="cls-5" x1="665.73" y1="285.43" x2="665.73" y2="277.71"/>
    <line class="cls-5" x1="926.33" y1="146.72" x2="844.22" y2="99.31"/>
    <line class="cls-5" x1="630.03" y1="264.82" x2="647.88" y2="275.12"/>
    <line class="cls-5" x1="647.88" y1="275.12" x2="647.88" y2="267.41"/>
    <line class="cls-5" x1="808.53" y1="142.18" x2="844.22" y2="121.57"/>
    <line class="cls-5" x1="289.86" y1="285.39" x2="307.71" y2="295.7"/>
    <line class="cls-5" x1="844.22" y1="202.98" x2="844.22" y2="195.27"/>
    <line class="cls-5" x1="1125.82" y1="187.58" x2="1143.03" y2="177.64"/>
    <line class="cls-5" x1="492.85" y1="209.42" x2="517.82" y2="228.55"/>
    <line class="cls-5" x1="450.5" y1="213.26" x2="468.35" y2="223.56"/>
    <path class="cls-5" d="M1125.18,118.9c2.38,2.47,4.76,4.95,7.14,7.42,2.38,2.47,4.76,4.94,7.14,7.42,4.76,4.95,9.52,9.89,14.28,14.84"/>
    <line class="cls-5" x1="486.2" y1="213.26" x2="486.2" y2="205.54"/>
    <path class="cls-5" d="M1242.98,164.66c-15.47-3.57-30.93-7.15-46.4-10.72"/>
    <line class="cls-5" x1="468.35" y1="223.56" x2="468.35" y2="215.84"/>
    <line class="cls-5" x1="325.56" y1="270.75" x2="382.67" y2="237.78"/>
    <path class="cls-5" d="M376.44,242.53c10.41,2.4,20.82,4.81,31.22,7.21"/>
    <line class="cls-5" x1="1113.44" y1="318.39" x2="1107.33" y2="321.92"/>
    <line class="cls-5" x1="468.35" y1="223.56" x2="486.2" y2="213.26"/>
    <path class="cls-5" d="M468.35,189.46v-1.15"/>
    <line class="cls-5" x1="1129.54" y1="329.7" x2="1125.18" y2="332.22"/>
    <line class="cls-5" x1="176.44" y1="211.49" x2="176.44" y2="206.66"/>
    <line class="cls-5" x1="140.74" y1="256.32" x2="158.59" y2="266.62"/>
    <path class="cls-5" d="M274.68,242.53c-10.41,2.4-20.82,4.81-31.22,7.21"/>
    <line class="cls-5" x1="140.74" y1="211.49" x2="140.74" y2="206.66"/>
    <line class="cls-5" x1="1181.54" y1="133.16" x2="1183.42" y2="132.94"/>
    <line class="cls-5" x1="1144.81" y1="110.45" x2="1148.38" y2="110.04"/>
    <line class="cls-5" x1="1180.51" y1="131.06" x2="1184.08" y2="130.65"/>
    <line class="cls-5" x1="1117.42" y1="178.85" x2="1118.03" y2="177.43"/>
    <line class="cls-5" x1="1185.64" y1="173.65" x2="1178.73" y2="177.64"/>
    <line class="cls-5" x1="833.02" y1="209.46" x2="857.99" y2="228.59"/>
    <line class="cls-5" x1="629.68" y1="223.18" x2="610.53" y2="208.51"/>
    <line class="cls-5" x1="158.59" y1="266.62" x2="158.59" y2="258.18"/>
    <line class="cls-5" x1="1058.52" y1="270.86" x2="1059.13" y2="268.74"/>
    <line class="cls-5" x1="1147.49" y1="150.33" x2="1151.22" y2="148.18"/>
    <line class="cls-5" x1="109.5" y1="229.52" x2="105.04" y2="226.95"/>
    <line class="cls-5" x1="1113.97" y1="210.91" x2="1138.94" y2="230.04"/>
    <path class="cls-5" d="M844.22,101.79v-2.47"/>
    <line class="cls-5" x1="288.84" y1="223.54" x2="270.36" y2="209.38"/>
    <line class="cls-5" x1="289.51" y1="223.15" x2="270.36" y2="208.48"/>
    <line class="cls-5" x1="1007.74" y1="288.02" x2="997.82" y2="292.33"/>
    <line class="cls-5" x1="909.96" y1="225.02" x2="891.48" y2="210.86"/>
    <line class="cls-5" x1="1006.85" y1="287.51" x2="997.82" y2="291.43"/>
    <line class="cls-5" x1="910.63" y1="224.63" x2="891.48" y2="209.96"/>
    <path class="cls-5" d="M417.47,160.08c-10.41,2.4-20.82,4.81-31.22,7.21"/>
    <line class="cls-5" x1="1055.56" y1="269.15" x2="1059.13" y2="268.74"/>
    <path class="cls-5" d="M468.35,188.31v-46.16"/>
    <line class="cls-5" x1="158.59" y1="266.62" x2="176.44" y2="256.32"/>
    <line class="cls-5" x1="411.25" y1="155.34" x2="468.35" y2="188.31"/>
    <line class="cls-5" x1="897.77" y1="172.07" x2="915.62" y2="161.76"/>
    <line class="cls-5" x1="915.62" y1="161.76" x2="915.62" y2="154.05"/>
    <line class="cls-5" x1="857.99" y1="228.59" x2="774.25" y2="265.02"/>
    <path class="cls-5" d="M1035.93,303.15v-31.73"/>
    <path class="cls-5" d="M1035.93,271.42c13.09,3.02,26.17,6.04,39.26,9.07"/>
    <line class="cls-5" x1="857.99" y1="229.49" x2="775.14" y2="265.53"/>
    <path class="cls-5" d="M69.34,215.1c-10.41,4.81-20.82,9.62-31.24,14.43"/>
    <path class="cls-5" d="M100.58,229.52c-10.41-4.81-20.82-9.62-31.24-14.43"/>
    <line class="cls-5" x1="100.58" y1="229.52" x2="105.04" y2="226.95"/>
    <line class="cls-5" x1="69.34" y1="215.1" x2="105.04" y2="194.49"/>
    <path class="cls-5" d="M105.04,226.95v-32.46"/>
    <line class="cls-5" x1="857.99" y1="228.59" x2="857.99" y2="229.49"/>
    <path class="cls-5" d="M808.53,142.18c-19.04,4.4-38.07,8.79-57.11,13.19"/>
    <line class="cls-5" x1="751.42" y1="155.37" x2="808.53" y2="188.34"/>
    <path class="cls-5" d="M325.56,224.59c19.03,4.4,38.07,8.79,57.11,13.19"/>
    <line class="cls-5" x1="751.65" y1="147.11" x2="755.86" y2="150.33"/>
    <line class="cls-5" x1="610.53" y1="208.51" x2="610.53" y2="209.41"/>
    <line class="cls-5" x1="468.35" y1="188.31" x2="525.46" y2="155.34"/>
    <line class="cls-5" x1="610.53" y1="208.51" x2="751.65" y2="147.11"/>
    <path class="cls-5" d="M808.53,188.34v1.15"/>
    <line class="cls-5" x1="601.48" y1="239.47" x2="754.98" y2="328.09"/>
    <line class="cls-5" x1="1214.43" y1="433.74" x2="1254.81" y2="410.42"/>
    <line class="cls-5" x1="1255.48" y1="408.89" x2="1214.43" y2="432.59"/>
    <path class="cls-5" d="M109.5,229.52c10.41-4.81,20.82-9.62,31.24-14.43"/>
    <line class="cls-5" x1="109.5" y1="229.52" x2="105.04" y2="232.1"/>
    <line class="cls-5" x1="140.74" y1="215.1" x2="105.04" y2="235.71"/>
    <path class="cls-5" d="M105.04,235.71v32.46"/>
    <path class="cls-5" d="M140.74,247.56v-32.46"/>
    <line class="cls-5" x1="612.18" y1="254.51" x2="612.18" y2="246.79"/>
    <line class="cls-5" x1="140.74" y1="247.56" x2="105.04" y2="268.17"/>
    <line class="cls-5" x1="907.42" y1="228.96" x2="1035.93" y2="303.15"/>
    <line class="cls-5" x1="630.03" y1="264.82" x2="630.03" y2="257.1"/>
    <line class="cls-5" x1="946.68" y1="219.89" x2="907.42" y2="228.96"/>
    <path class="cls-5" d="M550.46,167.29c-10.41-2.4-20.82-4.81-31.22-7.21"/>
    <line class="cls-5" x1="612.18" y1="254.51" x2="630.03" y2="264.82"/>
    <path class="cls-5" d="M468.35,189.46v25.24"/>
    <line class="cls-5" x1="468.35" y1="214.7" x2="550.46" y2="167.29"/>
    <path class="cls-5" d="M325.56,297.14v-25.24"/>
    <path class="cls-5" d="M665.73,202.37v2.47"/>
    <line class="cls-5" x1="243.46" y1="249.74" x2="325.56" y2="297.14"/>
    <path class="cls-5" d="M601.48,239.47c10.41-2.4,20.82-4.81,31.22-7.21"/>
    <path class="cls-5" d="M808.53,214.73v1.15"/>
    <line class="cls-5" x1="790.68" y1="316.34" x2="808.53" y2="306.04"/>
    <path class="cls-5" d="M757.65,160.12c-10.41,2.4-20.82,4.81-31.22,7.21"/>
    <line class="cls-5" x1="726.42" y1="167.33" x2="808.53" y2="214.73"/>
    <line class="cls-5" x1="1035.93" y1="127.14" x2="1018.08" y2="137.45"/>
    <line class="cls-5" x1="683.58" y1="295.73" x2="683.58" y2="288.02"/>
    <line class="cls-5" x1="701.43" y1="306.04" x2="701.43" y2="298.32"/>
    <line class="cls-5" x1="683.58" y1="295.73" x2="701.43" y2="306.04"/>
    <line class="cls-5" x1="1219.78" y1="248.13" x2="1255.48" y2="227.52"/>
    <path class="cls-5" d="M1018.08,137.45c-15.47,3.57-30.94,7.14-46.4,10.72"/>
    <line class="cls-5" x1="971.68" y1="148.17" x2="994.88" y2="161.56"/>
    <line class="cls-5" x1="994.88" y1="161.56" x2="1018.08" y2="137.45"/>
    <path class="cls-5" d="M105.04,227.27v-.32"/>
    <line class="cls-5" x1="38.11" y1="229.52" x2="73.8" y2="208.91"/>
    <path class="cls-5" d="M1089.48,216.18v-25.24"/>
    <line class="cls-5" x1="1178.73" y1="353.86" x2="1232.27" y2="384.78"/>
    <line class="cls-5" x1="1160.88" y1="364.17" x2="1178.73" y2="353.86"/>
    <line class="cls-5" x1="1030.58" y1="182.17" x2="1089.48" y2="216.18"/>
    <path class="cls-5" d="M1089.48,189.79v-46.16"/>
    <line class="cls-5" x1="1107.33" y1="321.92" x2="1125.18" y2="332.22"/>
    <path class="cls-5" d="M1089.48,143.63c-19.03,4.4-38.07,8.79-57.11,13.19"/>
    <line class="cls-5" x1="1032.37" y1="156.82" x2="1089.48" y2="189.79"/>
    <line class="cls-5" x1="1125.18" y1="118.9" x2="1125.18" y2="99.12"/>
    <line class="cls-5" x1="1107.33" y1="338.41" x2="1125.18" y2="348.71"/>
    <line class="cls-5" x1="1153.73" y1="156.82" x2="1118.03" y2="177.43"/>
    <line class="cls-5" x1="1107.33" y1="338.41" x2="1107.33" y2="321.92"/>
    <path class="cls-5" d="M1116.19,175.52l1.84,1.91"/>
    <line class="cls-5" x1="1075.19" y1="280.49" x2="1035.93" y2="303.15"/>
    <line class="cls-5" x1="808.53" y1="214.73" x2="926.33" y2="146.72"/>
    <line class="cls-5" x1="844.22" y1="121.57" x2="844.22" y2="101.79"/>
    <line class="cls-5" x1="946.68" y1="219.89" x2="1035.93" y2="271.42"/>
    <path class="cls-5" d="M1073.86,282.4c.44-.64.88-1.28,1.33-1.91"/>
    <line class="cls-5" x1="1035.93" y1="304.3" x2="1073.86" y2="282.4"/>
    <path class="cls-5" d="M1035.93,303.15v1.15"/>
    <line class="cls-5" x1="1118.03" y1="173.31" x2="1089.48" y2="189.79"/>
    <path class="cls-5" d="M817.91,292.91c.44-.64.88-1.28,1.32-1.91"/>
    <line class="cls-5" x1="1107.33" y1="214.74" x2="1125.18" y2="204.43"/>
    <path class="cls-5" d="M1214.43,432.59v-37.51"/>
    <line class="cls-5" x1="1214.43" y1="433.74" x2="1138.34" y2="389.81"/>
    <line class="cls-5" x1="1137.67" y1="388.28" x2="1214.43" y2="432.59"/>
    <path class="cls-5" d="M882.43,240.92c10.41-2.4,20.82-4.81,31.22-7.21"/>
    <line class="cls-5" x1="105.04" y1="232.1" x2="100.58" y2="229.52"/>
    <line class="cls-5" x1="665.73" y1="218.44" x2="665.73" y2="204.84"/>
    <line class="cls-5" x1="105.04" y1="268.17" x2="38.11" y2="229.52"/>
    <line class="cls-5" x1="105.04" y1="235.71" x2="69.34" y2="215.1"/>
    <line class="cls-5" x1="361.26" y1="285.39" x2="379.11" y2="275.09"/>
    <line class="cls-5" x1="361.26" y1="285.39" x2="361.26" y2="277.68"/>
    <line class="cls-5" x1="386.25" y1="167.29" x2="468.35" y2="214.7"/>
    <path class="cls-5" d="M158.59,225.4v32.46"/>
    <line class="cls-5" x1="158.59" y1="221.8" x2="136.28" y2="208.91"/>
    <line class="cls-5" x1="158.59" y1="225.4" x2="105.04" y2="194.49"/>
    <path class="cls-5" d="M136.28,208.91c-10.41-4.81-20.82-9.62-31.24-14.43"/>
    <line class="cls-5" x1="882.43" y1="240.92" x2="959.18" y2="285.23"/>
    <line class="cls-5" x1="959.18" y1="285.23" x2="974.79" y2="269"/>
    <line class="cls-5" x1="754.98" y1="269.97" x2="665.73" y2="218.44"/>
    <path class="cls-5" d="M754.98,302.85v-1.15"/>
    <line class="cls-5" x1="1171.58" y1="333.66" x2="1148.38" y2="347.06"/>
    <line class="cls-5" x1="1125.18" y1="322.95" x2="1148.38" y2="347.06"/>
    <line class="cls-5" x1="1035.93" y1="81.8" x2="1035.93" y2="84.02"/>
    <line class="cls-5" x1="994.07" y1="280.13" x2="982.38" y2="286.88"/>
    <line class="cls-5" x1="1053.78" y1="73.72" x2="1053.78" y2="71.5"/>
    <line class="cls-5" x1="136.28" y1="208.91" x2="158.59" y2="196.03"/>
    <line class="cls-5" x1="1182.29" y1="132.09" x2="1153.73" y2="148.57"/>
    <line class="cls-5" x1="1012.73" y1="79.12" x2="1013.39" y2="81.42"/>
    <line class="cls-5" x1="1053.78" y1="55.42" x2="1012.73" y2="79.12"/>
    <line class="cls-5" x1="844.22" y1="202.98" x2="862.07" y2="192.68"/>
    <line class="cls-5" x1="1096.62" y1="123.85" x2="1066.87" y2="141.02"/>
    <line class="cls-5" x1="1143.03" y1="177.64" x2="1143.03" y2="164.15"/>
    <line class="cls-5" x1="486.2" y1="213.26" x2="504.05" y2="202.95"/>
    <path class="cls-5" d="M1125.18,322.95c15.47,3.57,30.93,7.15,46.4,10.72"/>
    <line class="cls-5" x1="1125.18" y1="322.95" x2="1107.33" y2="312.64"/>
    <line class="cls-5" x1="897.77" y1="172.07" x2="897.77" y2="164.35"/>
    <line class="cls-5" x1="879.92" y1="182.37" x2="897.77" y2="172.07"/>
    <line class="cls-5" x1="1178.73" y1="164.24" x2="1201.93" y2="188.36"/>
    <line class="cls-5" x1="1201.93" y1="188.36" x2="1242.98" y2="164.66"/>
    <line class="cls-5" x1="343.41" y1="295.7" x2="361.26" y2="285.39"/>
    <path class="cls-5" d="M1053.78,55.42v16.08"/>
    <line class="cls-5" x1="1053.78" y1="71.5" x2="1076.98" y2="68.82"/>
    <line class="cls-5" x1="212.14" y1="235.71" x2="229.99" y2="225.4"/>
    <line class="cls-5" x1="982.38" y1="163.21" x2="1000.23" y2="173.52"/>
    <line class="cls-5" x1="1089.48" y1="216.18" x2="1130.53" y2="192.48"/>
    <line class="cls-5" x1="1114.92" y1="176.25" x2="1130.53" y2="192.48"/>
    <line class="cls-5" x1="229.99" y1="225.4" x2="229.99" y2="216.96"/>
    <line class="cls-5" x1="1035.93" y1="152.91" x2="1035.93" y2="136.42"/>
    <path class="cls-5" d="M1125.18,118.9c19.04,4.4,38.07,8.79,57.11,13.19"/>
    <line class="cls-5" x1="521.9" y1="192.65" x2="521.9" y2="184.93"/>
    <line class="cls-5" x1="504.05" y1="202.95" x2="521.9" y2="192.65"/>
    <path class="cls-5" d="M411.25,155.34c19.03-4.4,38.07-8.79,57.11-13.19"/>
    <path class="cls-5" d="M468.35,142.15v-19.78"/>
    <path class="cls-5" d="M468.35,119.89v2.47"/>
    <path class="cls-5" d="M158.59,196.03v-32.46"/>
    <line class="cls-5" x1="550.46" y1="167.29" x2="468.35" y2="119.89"/>
    <line class="cls-5" x1="158.59" y1="196.03" x2="180.9" y2="208.91"/>
    <line class="cls-5" x1="1125.18" y1="332.22" x2="1140.45" y2="341.04"/>
    <path class="cls-5" d="M180.9,208.91c10.41-4.81,20.83-9.62,31.24-14.43"/>
    <line class="cls-5" x1="180.9" y1="208.91" x2="158.59" y2="221.8"/>
    <line class="cls-5" x1="1143.03" y1="359.02" x2="1143.03" y2="343.72"/>
    <line class="cls-5" x1="243.37" y1="208.91" x2="158.59" y2="257.86"/>
    <line class="cls-5" x1="212.14" y1="194.49" x2="158.59" y2="225.4"/>
    <line class="cls-5" x1="967.11" y1="279.21" x2="979.79" y2="271.89"/>
    <line class="cls-5" x1="325.56" y1="297.14" x2="407.66" y2="249.74"/>
    <path class="cls-5" d="M325.56,270.75v-46.16"/>
    <line class="cls-5" x1="1196.57" y1="233.29" x2="1211.85" y2="242.11"/>
    <line class="cls-5" x1="268.45" y1="237.78" x2="325.56" y2="270.75"/>
    <path class="cls-5" d="M268.45,237.78c19.04-4.4,38.07-8.79,57.11-13.19"/>
    <path class="cls-5" d="M325.56,224.59v-19.78"/>
    <line class="cls-5" x1="1214.43" y1="260.08" x2="1214.43" y2="244.78"/>
    <line class="cls-5" x1="1000.23" y1="173.52" x2="1000.23" y2="158.22"/>
    <path class="cls-5" d="M895.1,139.51c10.41,2.4,20.82,4.81,31.22,7.21"/>
    <line class="cls-5" x1="844.23" y1="121.57" x2="901.33" y2="134.76"/>
    <line class="cls-5" x1="1002.81" y1="155.54" x2="1018.08" y2="146.72"/>
    <line class="cls-5" x1="901.33" y1="134.76" x2="808.53" y2="188.34"/>
    <line class="cls-5" x1="1196.57" y1="153.94" x2="1219.78" y2="151.26"/>
    <line class="cls-5" x1="808.53" y1="142.18" x2="808.53" y2="188.34"/>
    <line class="cls-5" x1="826.38" y1="213.29" x2="844.22" y2="202.98"/>
  </g>
  <g id="ConceptDiagram::Outlinge">
    <polygon class="cls-2" points="1196.57 224.01 1232.27 203.4 1255.48 227.52 1254.81 229.05 1250.12 231.75 1250.12 239.47 1232.27 249.78 1214.43 260.08 1196.57 249.78 1196.57 233.29 1200.94 230.77 1195.91 225.55 1196.57 224.01"/>
    <polygon class="cls-2" points="1160.88 364.17 1178.73 353.86 1232.27 384.78 1255.48 408.89 1254.81 410.42 1250.12 413.13 1250.12 420.85 1232.27 431.15 1214.43 441.46 1196.57 431.15 1178.73 420.85 1160.88 410.54 1143.03 400.24 1143.03 392.52 1138.34 389.81 1137.67 388.28 1160.88 364.17"/>
    <polygon class="cls-2" points="1107.33 312.64 1130.53 309.96 1171.58 333.66 1170.26 335.58 1160.88 340.99 1160.88 348.71 1143.03 359.02 1125.18 348.71 1107.33 338.41 1107.33 321.92 1113.44 318.39 1107.33 314.86 1107.33 312.64"/>
    <polygon class="cls-2" points="1196.57 153.94 1219.78 151.26 1242.98 164.66 1241.65 166.57 1232.27 171.98 1232.27 183.82 1214.43 194.13 1196.57 204.43 1178.73 194.13 1178.73 177.64 1185.64 173.65 1178.73 166.46 1178.73 164.24 1196.57 153.94"/>
    <polygon class="cls-2" points="1012.73 79.12 1053.78 55.42 1076.98 68.82 1076.32 71.11 1067.4 72.14 1071.63 74.59 1071.63 91.08 1053.78 101.38 1035.93 111.69 1018.08 101.38 1018.08 84.89 1022.31 82.45 1013.39 81.42 1012.73 79.12"/>
    <path class="cls-2" d="M1125.18,99.12c6.54,3.78,13.09,7.56,19.63,11.33,1.19-.14,2.38-.27,3.57-.41,11.9,6.87,23.8,13.74,35.7,20.61-.22.77-.44,1.53-.66,2.3-.63.07-1.25.14-1.87.22-.19.28-.39.56-.58.84-.74.43-1.49.86-2.23,1.29v13.49c-11.9,6.87-23.8,13.74-35.7,20.61v8.24c-5.74,3.31-11.47,6.63-17.21,9.94,1.57,1.63,3.14,3.27,4.72,4.9-.22.51-.44,1.02-.66,1.53-1.56.9-3.13,1.8-4.69,2.71v7.72c-3.74,2.16-7.47,4.31-11.21,6.47,8.32,6.38,16.65,12.76,24.97,19.13v.9c-27.62,12.02-55.23,24.03-82.85,36.05,1.01.58,2.03,1.17,3.04,1.75-.2.71-.41,1.41-.61,2.12,5.56,3.21,11.11,6.41,16.67,9.62-.44.64-.88,1.28-1.33,1.91-12.64,7.3-25.29,14.6-37.93,21.9-9.4-5.43-18.8-10.85-28.19-16.28-3.3,1.44-6.61,2.88-9.91,4.31-3.57-2.73-7.13-5.46-10.7-8.2-1.58.91-3.16,1.83-4.74,2.74-5.95,3.44-11.9,6.87-17.85,10.31-5.95-3.44-11.9-6.87-17.85-10.31-5.95-3.43-11.9-6.87-17.85-10.3-5.95-3.44-11.9-6.87-17.85-10.31-5.95-3.44-11.9-6.87-17.85-10.3v-7.72c-3.13-1.8-6.25-3.61-9.38-5.41-.44-.64-.88-1.28-1.33-1.91,9.18-5.3,18.36-10.6,27.53-15.9-6.16-4.72-12.32-9.44-18.48-14.16v-.9c32.67-14.21,65.34-28.43,98.01-42.64-2.37-1.37-4.74-2.74-7.11-4.1v-7.72c-3.13-1.81-6.25-3.61-9.38-5.42-.44-.64-.88-1.28-1.33-1.91,13.68-7.9,27.37-15.8,41.05-23.7,7.73.89,15.47,1.79,23.2,2.68v2.22c-2.04,1.18-4.07,2.35-6.11,3.53,2.04,1.18,4.07,2.35,6.11,3.53v14.69l2.72,2.08c7.42-4.29,14.85-8.57,22.28-12.86.79.09,1.59.18,2.38.27,6.94-4.01,13.88-8.01,20.82-12.02,1.19.14,2.38.27,3.57.41l8.92-5.15c4.76.55,9.52,1.1,14.28,1.65,2.28.26,4.56.53,6.84.79,2.66-1.53,5.32-3.07,7.98-4.6-.18-.19-.36-.37-.54-.56-2.16-.25-4.32-.5-6.48-.75-2.38-.27-4.76-.55-7.14-.82-4.76-.55-9.52-1.1-14.28-1.65-.22-.76-.44-1.53-.66-2.3,9.52-5.5,19.04-10.99,28.55-16.49Z"/>
    <polygon class="cls-2" points="73.8 208.91 158.59 159.96 243.37 208.91 241.14 210.52 229.99 216.96 229.99 225.4 212.14 235.71 194.29 246.01 176.44 256.32 158.59 266.62 140.74 256.32 122.89 266.62 105.04 276.93 87.19 266.62 69.34 256.32 51.49 246.01 51.49 237.57 40.34 231.13 38.11 229.52 73.8 208.91"/>
    <polygon class="cls-2" points="415.68 150.3 468.35 119.89 550.46 167.29 549.13 169.21 539.75 174.62 539.75 182.34 521.9 192.65 504.05 202.95 492.85 209.42 517.82 228.55 517.82 229.46 376.7 290.85 366 282.66 361.26 285.39 343.41 295.7 325.56 306.01 307.71 295.7 289.86 285.39 272.01 275.09 254.16 264.78 254.16 257.07 244.78 251.65 243.46 249.74 288.84 223.54 270.36 209.38 270.36 208.48 411.48 147.08 415.68 150.3"/>
    <polygon class="cls-2" points="755.86 150.33 844.22 99.31 926.33 146.72 925 148.63 915.62 154.05 915.62 161.76 897.77 172.07 879.92 182.37 862.07 192.68 844.22 202.98 833.02 209.46 857.99 228.59 857.99 229.49 775.14 265.53 819.23 290.99 817.91 292.91 808.53 298.32 808.53 306.04 790.68 316.34 772.83 326.65 754.98 336.96 737.13 326.65 719.28 316.34 701.43 306.04 683.58 295.73 665.73 285.43 647.88 275.12 630.03 264.82 612.18 254.51 612.18 246.79 602.8 241.38 601.48 239.47 629.01 223.57 610.53 209.41 610.53 208.51 751.65 147.11 755.86 150.33"/>
    <path class="cls-2" d="M900.01,136.67c.44-.64.88-1.28,1.32-1.91"/>
    <line class="cls-2" x1="844.22" y1="99.31" x2="726.42" y2="167.33"/>
    <line class="cls-2" x1="325.56" y1="204.81" x2="268.45" y2="237.78"/>
    <line class="cls-2" x1="325.56" y1="271.9" x2="269.78" y2="239.7"/>
    <line class="cls-2" x1="406.33" y1="251.65" x2="325.56" y2="298.29"/>
    <line class="cls-2" x1="241.14" y1="210.52" x2="158.59" y2="258.18"/>
    <line class="cls-2" x1="381.34" y1="239.7" x2="325.56" y2="271.9"/>
    <line class="cls-2" x1="158.59" y1="196.35" x2="180.62" y2="209.07"/>
    <line class="cls-2" x1="468.35" y1="122.37" x2="411.25" y2="155.34"/>
    <path class="cls-2" d="M412.57,157.25c-.44-.64-.88-1.28-1.32-1.91"/>
    <line class="cls-2" x1="1182.29" y1="132.09" x2="1125.18" y2="99.12"/>
    <path class="cls-2" d="M1180.96,134c.44-.64.88-1.28,1.33-1.91"/>
    <line class="cls-2" x1="1129.87" y1="194.01" x2="1089.48" y2="217.33"/>
    <line class="cls-2" x1="1053.78" y1="73.72" x2="1076.32" y2="71.11"/>
    <line class="cls-2" x1="1178.73" y1="166.46" x2="1201.27" y2="189.89"/>
    <line class="cls-2" x1="1241.65" y1="166.57" x2="1201.27" y2="189.89"/>
    <line class="cls-2" x1="1125.18" y1="325.17" x2="1107.33" y2="314.86"/>
    <path class="cls-2" d="M1125.18,127.14c-2.38-.27-4.76-.55-7.14-.82-2.38-.28-4.76-.55-7.14-.82-4.76-.55-9.52-1.1-14.28-1.65"/>
    <path class="cls-2" d="M1125.18,121.12c2.16,2.24,4.32,4.49,6.48,6.73,2.38,2.47,4.76,4.95,7.14,7.42,4.76,4.95,9.52,9.89,14.28,14.84"/>
    <line class="cls-2" x1="1180.96" y1="134" x2="1153.07" y2="150.11"/>
    <line class="cls-2" x1="136.56" y1="209.07" x2="158.59" y2="196.35"/>
    <line class="cls-2" x1="1147.72" y1="348.59" x2="1170.26" y2="335.58"/>
    <line class="cls-2" x1="1125.18" y1="325.17" x2="1147.72" y2="348.59"/>
    <line class="cls-2" x1="959.84" y1="286.76" x2="883.76" y2="242.83"/>
    <line class="cls-2" x1="959.84" y1="286.76" x2="976.17" y2="269.8"/>
    <line class="cls-2" x1="468.35" y1="215.84" x2="387.58" y2="169.21"/>
    <line class="cls-2" x1="105.04" y1="268.49" x2="40.34" y2="231.13"/>
    <line class="cls-2" x1="1117.37" y1="174.84" x2="1089.48" y2="190.94"/>
    <path class="cls-2" d="M1089.48,143.63c2.38,2.47,4.76,4.95,7.14,7.42,2.38,2.47,4.76,4.95,7.14,7.42,4.76,4.95,9.52,9.89,14.28,14.84"/>
    <line class="cls-2" x1="1060.93" y1="140.34" x2="1032.37" y2="156.82"/>
    <path class="cls-2" d="M1089.48,143.63c-2.38-.27-4.76-.55-7.14-.82-2.38-.27-4.76-.55-7.14-.82-4.76-.55-9.52-1.1-14.28-1.65"/>
    <line class="cls-2" x1="844.22" y1="101.79" x2="751.42" y2="155.37"/>
    <line class="cls-2" x1="925" y1="148.63" x2="808.53" y2="215.88"/>
    <line class="cls-2" x1="1153.07" y1="158.35" x2="1117.47" y2="178.9"/>
    <path class="cls-2" d="M1125.18,127.14c2.38,2.47,4.76,4.95,7.14,7.42,2.38,2.47,4.76,4.94,7.14,7.42,4.76,4.95,9.52,9.89,14.28,14.84"/>
    <line class="cls-2" x1="1089.48" y1="190.94" x2="1033.7" y2="158.74"/>
    <line class="cls-2" x1="1030.58" y1="182.17" x2="1046.19" y2="165.95"/>
    <line class="cls-2" x1="1089.48" y1="217.33" x2="1031.24" y2="183.7"/>
    <line class="cls-2" x1="995.54" y1="163.09" x2="973" y2="150.08"/>
    <line class="cls-2" x1="995.54" y1="163.09" x2="1018.08" y2="139.67"/>
    <line class="cls-2" x1="1195.91" y1="225.55" x2="1219.11" y2="249.66"/>
    <line class="cls-2" x1="1254.81" y1="229.05" x2="1219.11" y2="249.66"/>
    <line class="cls-2" x1="1018.08" y1="139.67" x2="1035.93" y2="129.37"/>
    <line class="cls-2" x1="808.53" y1="215.88" x2="727.75" y2="169.24"/>
    <line class="cls-2" x1="325.56" y1="298.29" x2="244.78" y2="251.65"/>
    <line class="cls-2" x1="549.13" y1="169.21" x2="468.35" y2="215.84"/>
    <line class="cls-2" x1="908.75" y1="230.87" x2="1035.93" y2="304.3"/>
    <line class="cls-2" x1="140.74" y1="247.88" x2="105.04" y2="268.49"/>
    <line class="cls-2" x1="946.68" y1="206.29" x2="907.42" y2="228.96"/>
    <path class="cls-2" d="M752.74,157.28c-.44-.64-.88-1.28-1.33-1.91"/>
    <line class="cls-2" x1="468.35" y1="119.89" x2="386.25" y2="167.29"/>
    <line class="cls-2" x1="524.14" y1="157.25" x2="468.35" y2="189.46"/>
    <path class="cls-2" d="M525.46,155.34c-.44.64-.88,1.28-1.32,1.91"/>
    <line class="cls-2" x1="808.53" y1="189.49" x2="752.74" y2="157.28"/>
    <line class="cls-2" x1="946.68" y1="206.29" x2="1075.19" y2="280.49"/>
    <line class="cls-2" x1="1035.93" y1="84.02" x2="1053.78" y2="73.72"/>
    <line class="cls-2" x1="1013.39" y1="81.42" x2="1035.93" y2="84.02"/>
    <line class="cls-2" x1="325.56" y1="202.34" x2="243.46" y2="249.74"/>
    <line class="cls-2" x1="468.35" y1="189.46" x2="412.57" y2="157.25"/>
    <line class="cls-2" x1="109.22" y1="229.68" x2="105.04" y2="227.27"/>
    <line class="cls-2" x1="143.86" y1="213.29" x2="158.59" y2="204.79"/>
    <line class="cls-2" x1="382.67" y1="237.78" x2="325.56" y2="204.81"/>
    <line class="cls-2" x1="100.86" y1="229.68" x2="105.04" y2="227.27"/>
    <path class="cls-2" d="M382.67,237.78c-.44.64-.88,1.28-1.33,1.91"/>
    <line class="cls-2" x1="737.13" y1="182.37" x2="737.13" y2="174.66"/>
    <line class="cls-2" x1="407.66" y1="249.74" x2="325.56" y2="202.34"/>
    <path class="cls-2" d="M726.42,167.33c.44.64.88,1.28,1.32,1.91"/>
    <path class="cls-2" d="M269.78,239.7c-.44-.64-.88-1.28-1.33-1.91"/>
    <path class="cls-2" d="M407.66,249.74c-.44.64-.88,1.28-1.33,1.91"/>
    <line class="cls-2" x1="1035.93" y1="194.13" x2="1035.93" y2="186.41"/>
    <line class="cls-2" x1="900.01" y1="136.67" x2="808.53" y2="189.49"/>
    <line class="cls-2" x1="396.96" y1="264.78" x2="396.96" y2="257.07"/>
    <line class="cls-2" x1="396.96" y1="182.34" x2="396.96" y2="174.62"/>
    <line class="cls-2" x1="158.59" y1="258.18" x2="140.74" y2="247.88"/>
    <path class="cls-2" d="M387.58,169.21c-.44-.64-.88-1.28-1.32-1.91"/>
    <line class="cls-2" x1="1117.37" y1="174.84" x2="1118.03" y2="173.31"/>
    <path class="cls-2" d="M1033.7,158.74c-.44-.64-.88-1.28-1.33-1.91"/>
    <line class="cls-2" x1="1153.07" y1="158.35" x2="1153.73" y2="156.82"/>
    <line class="cls-2" x1="1030.58" y1="182.17" x2="1031.24" y2="183.7"/>
    <line class="cls-2" x1="525.46" y1="155.34" x2="468.35" y2="122.37"/>
    <line class="cls-2" x1="901.33" y1="134.76" x2="844.22" y2="101.79"/>
    <line class="cls-2" x1="158.59" y1="204.79" x2="173.31" y2="213.29"/>
    <path class="cls-2" d="M908.75,230.87c-.44-.64-.88-1.28-1.33-1.91"/>
    <line class="cls-6" x1="819.23" y1="290.99" x2="665.73" y2="202.37"/>
    <line class="cls-6" x1="665.73" y1="202.37" x2="601.48" y2="239.47"/>
    <line class="cls-6" x1="665.73" y1="204.84" x2="794.24" y2="279.04"/>
    <line class="cls-6" x1="665.73" y1="204.84" x2="626.47" y2="227.51"/>
    <line class="cls-6" x1="627.8" y1="229.42" x2="754.98" y2="302.85"/>
    <line class="cls-6" x1="754.98" y1="302.85" x2="792.91" y2="280.95"/>
    <path class="cls-6" d="M792.91,280.95c.44-.64.88-1.28,1.32-1.91"/>
    <path class="cls-6" d="M627.8,229.42c-.44-.64-.88-1.28-1.33-1.91"/>
    <line class="cls-6" x1="754.98" y1="329.24" x2="817.91" y2="292.91"/>
    <line class="cls-6" x1="754.98" y1="329.24" x2="602.8" y2="241.38"/>
    <line class="cls-6" x1="946.68" y1="203.82" x2="882.43" y2="240.92"/>
    <line class="cls-6" x1="1059.13" y1="268.74" x2="946.68" y2="203.82"/>
  </g>
</svg>