<?xml version="1.0" encoding="UTF-8"?>
<svg id="Layer_1" data-name="Layer 1" xmlns="http://www.w3.org/2000/svg" viewBox="0 0 100 100">
  <defs>
    <style>
      .cls-1 {
        fill: #939598;
      }
    </style>
  </defs>
  <path class="cls-1" d="M90.04,18.79h-19.18l-18.48,35.03c.45-2.28.7-4.73.7-7.37,0-17.78-10.87-25.85-24.04-27.34-2.88-.33-4.2-.33-7.25-.33H.3v56.81h21.49c3.05,0,4.36,0,7.25-.33,6.01-.68,11.53-3.04,15.77-7.08l-3.91,7.41h15.73l7.25-14.74h17.87l2.14,14.74h16.14l-9.96-56.81ZM25.08,63.92c-1.89.16-3.21.16-5.35.16h-4.61V30.32h4.61c2.14,0,3.46,0,5.35.17,7.41.66,12.52,6.09,12.52,16.22s-5.1,16.55-12.52,17.21ZM69.46,49.34l8.23-16.8,2.39,16.8h-10.62Z"/>
</svg>