<?xml version="1.0" encoding="UTF-8"?>
<svg xmlns="http://www.w3.org/2000/svg" version="1.1" viewBox="0 0 100 100">
  <!-- Generator: Adobe Illustrator 29.5.1, SVG Export Plug-In . SVG Version: 2.1.0 Build 141)  -->
  <defs>
    <style>
      .st0, .st1 {
        fill: none;
        stroke: #000;
        stroke-miterlimit: 10;
      }

      .st1 {
        stroke-width: 2.5px;
      }

      .st2 {
        display: none;
      }
    </style>
  </defs>
  <g id="Linke">
    <path class="st1" d="M91.54,2.18c3.04.57,5.5,2.64,6.11,5.74.26,28.02.26,56.13,0,84.15-.65,3.24-3.36,5.53-6.65,5.75H8.73c-3.34-.25-6.1-2.75-6.57-6.08V8.14c.44-2.98,3.13-5.61,6.14-5.95h83.24ZM22.15,15.48c-4.09.49-7.2,4.55-6.95,8.6.48,8.01,11.26,10.64,15.27,3.64,3.48-6.08-1.45-13.07-8.32-12.24ZM83.56,83.57v-27.32c-.34-8.19-2.13-16.46-11.15-18.68-6.16-1.51-13.4-.58-17.7,4.45-.56.66-.95,1.47-1.44,2.11-.08.1,0,.22-.28.15v-6.26h-13.63v45.54h14.12v-23.64c.22-4.82,1.33-9.65,6.83-10.47,6.66-1,8.93,3.3,9.13,9.25v24.86s14.11,0,14.11,0ZM30.4,38.03h-14.12v45.54h14.12v-45.54Z"/>
  </g>
  <g id="Handshake" class="st2">
    <path class="st1" d="M21.3,2.11l57.01-.05c10.29.56,18.77,8.77,19.62,19.04v57.93c-.92,10.11-9.18,18.23-19.33,18.9H21.26c-10.36-.83-18.67-9.37-19.19-19.78V21.98C2.56,11.51,10.8,2.88,21.3,2.11ZM50.22,21.33h-10.8l-10.21,57.63h10.94l2.86-16.04,11.44-9.35-4.52,25.39h10.72l10.29-57.63h-10.8l-3.83,21.85-11.49,9.23,5.4-31.08Z"/>
  </g>
  <g id="Layer_4" class="st2">
    <rect class="st0" x="2.06" y="21.33" width="95.86" height="57.7" rx="5.65" ry="5.65"/>
    <polyline class="st0" points="2.06 29.98 50 53.18 97.93 29.98"/>
  </g>
</svg>